<svg width="64" height="56" viewBox="0 0 64 56" fill="none" xmlns="http://www.w3.org/2000/svg">
<path d="M31.044 54.9151C47.4654 54.9151 60.7776 53.6859 60.7776 52.1695C60.7776 50.6531 47.4654 49.4238 31.044 49.4238C14.6226 49.4238 1.31036 50.6531 1.31036 52.1695C1.31036 53.6859 14.6226 54.9151 31.044 54.9151Z" fill="black" fill-opacity="0.2"/>
<path d="M58.3855 24.927C57.89 24.5558 57.3317 24.2323 56.7198 23.9674C56.847 24.1984 56.9687 24.46 57.0862 24.7224C57.1163 24.7893 57.1426 24.848 57.164 24.8935C57.4985 25.6018 57.7181 26.3428 57.8151 27.0936C57.8486 27.3528 57.8682 27.616 57.8866 27.8697C57.9138 28.2437 57.9397 28.5971 58.0075 28.9475C58.0974 29.4124 58.3077 30.0447 58.8033 30.4224C58.9714 30.5505 59.1558 30.634 59.3461 30.6716C59.444 30.4989 59.5234 30.3125 59.5828 30.1162C60.0299 28.2392 59.6117 26.2465 58.3855 24.9274V24.927Z" fill="#CCF9FF"/>
<path d="M60.1486 26.8936C59.7283 26.1469 59.1274 25.4824 58.3855 24.927C59.6112 26.2461 60.0298 28.2384 59.5828 30.1158C59.5234 30.3121 59.4439 30.4984 59.3461 30.6712C59.574 30.7162 59.8099 30.6956 60.0353 30.6051C60.451 30.4394 60.7378 30.0711 60.8039 29.6203C60.9177 28.845 60.6726 27.8263 60.149 26.894L60.1486 26.8936Z" fill="#9EF3FF"/>
<path d="M60.6953 13.15C60.2708 11.5917 58.5035 11.0858 56.878 11.2127C56.4832 11.3144 56.1219 11.4416 55.8174 11.5648C57.3301 11.7037 58.2066 12.6165 59.0438 13.9943C59.3997 14.5795 60.0918 14.7035 60.6296 14.5687C60.7894 14.1385 60.8337 13.6678 60.6957 13.1496L60.6953 13.15Z" fill="#CCF9FF"/>
<path d="M61.1929 12.2256C60.5418 11.447 59.6 11.0263 58.4696 11.0073C57.9172 10.9978 57.3715 11.0854 56.8776 11.2127C58.5035 11.0858 60.2704 11.5912 60.6948 13.15C60.8328 13.6683 60.7885 14.139 60.6288 14.5691C60.6363 14.5675 60.6438 14.5658 60.6509 14.5642C61.1277 14.4369 61.6404 14.0551 61.65 13.3641C61.6554 12.9901 61.4928 12.5855 61.1921 12.226L61.1929 12.2256Z" fill="#9EF3FF"/>
<path d="M30.7111 1.37271C30.6563 1.42644 30.6083 1.4876 30.5689 1.55578C30.4146 1.82275 30.4197 2.13641 30.5823 2.41659C30.8065 2.80051 31.2452 3.01044 31.5743 3.11954C31.8269 3.20343 32.0878 3.25715 32.3626 3.31418C32.5516 3.35344 32.7482 3.39435 32.9405 3.44518C33.5001 3.59271 34.0383 3.82992 34.5414 4.14895C34.5723 4.1692 34.6137 4.19441 34.6606 4.22293C34.6811 4.23532 34.7007 4.24772 34.7208 4.26012C33.8459 3.46626 32.6754 3.08978 31.6044 2.46742C31.141 2.21782 30.8119 1.81365 30.7111 1.3723V1.37271Z" fill="#9EF3FF"/>
<path d="M33.2721 1.86407C32.6436 1.39916 31.9256 1.1227 31.3485 1.1227H31.3326C31.0921 1.12518 30.8717 1.21568 30.7111 1.37313C30.8119 1.81448 31.1414 2.21865 31.6044 2.46825C32.6754 3.09061 33.8459 3.46709 34.7208 4.26095C34.8345 4.33079 34.9453 4.40021 35.0491 4.46964C34.6994 3.37245 34.0843 2.46453 33.2717 1.86449L33.2721 1.86407Z" fill="#CCF9FF"/>
<path d="M19.9205 6.70947C21.2206 6.95412 22.4246 6.43631 23.6073 6.5669C23.7674 6.56566 23.9314 6.5764 24.1016 6.60409C23.6541 6.2458 23.0389 5.84205 22.3443 5.63171C22.0206 5.53335 21.7036 5.485 21.3967 5.485C20.884 5.485 20.4022 5.62096 19.9715 5.89206C19.7515 6.03008 19.5784 6.20034 19.4634 6.38631C19.5479 6.55202 19.6997 6.67352 19.9205 6.70989V6.70947Z" fill="#CCF9FF"/>
<path d="M19.9204 6.70947C19.6996 6.67311 19.5478 6.55202 19.4633 6.38589C19.414 6.46565 19.3743 6.54748 19.3483 6.63178C19.1877 7.1438 19.4746 7.54755 19.7966 7.75501C20.1621 7.99056 20.7162 8.07073 21.1273 7.7174C21.9215 7.0347 22.6918 6.57475 23.6072 6.56731C22.4246 6.43672 21.221 6.95453 19.9204 6.70989V6.70947Z" fill="#9EF3FF"/>
<path d="M35.7374 15.6634C37.3913 16.3172 38.4397 17.7872 39.5697 19.1674C38.9044 16.842 37.319 14.9196 34.5677 14.5047C31.9126 14.1047 29.4762 14.4605 27.45 15.2333C30.1833 14.5518 33.0973 14.6196 35.7378 15.663L35.7374 15.6634Z" fill="#F2F2F2"/>
<path d="M35.7374 15.6634C33.0969 14.62 30.1829 14.5518 27.4496 15.2337C26.5789 15.5659 25.7831 15.9746 25.0793 16.4342C25.0768 16.7305 25.1152 16.9983 25.2177 17.1991C25.3076 17.376 25.441 17.4859 25.6263 17.5359C26.921 17.8892 27.9736 16.0374 27.9836 16.0184C28.0209 15.9511 28.0903 15.906 28.1681 15.8982C28.4177 15.8721 34.3105 15.306 36.9836 18.0591C37.0409 18.1182 37.0631 18.2029 37.0426 18.2822C36.9163 18.76 36.7256 20.084 37.3533 20.4679C37.595 20.6146 38.0441 20.596 38.5861 20.4163C38.998 20.2803 39.3999 20.0745 39.7378 19.8538C39.6906 19.622 39.6341 19.3931 39.5697 19.1674C38.4398 17.7872 37.3913 16.3172 35.7374 15.6634Z" fill="white"/>
<path d="M37.9208 9.51423C38.7254 9.75516 41.4018 10.0692 43.8441 10.3209C41.6247 9.2543 39.2243 8.90799 36.8013 8.73401C37.0564 9.06668 37.4152 9.36257 37.9208 9.51423Z" fill="#5282FF"/>
<path d="M48.1686 13.429C48.1686 13.7381 48.9469 13.9819 49.7833 14.1555C49.3387 13.7538 48.8741 13.3786 48.392 13.0257C48.2548 13.1595 48.1686 13.2963 48.1686 13.4294V13.429Z" fill="#5282FF"/>
<path d="M36.6144 8.45547C36.6692 8.54969 36.7319 8.64309 36.8013 8.73401C39.2243 8.90799 41.6252 9.25429 43.8441 10.3209C44.5074 10.3891 45.1539 10.4531 45.7406 10.5093C45.1025 10.1655 44.4396 9.86674 43.7576 9.61713C41.3785 8.74682 38.9479 8.42778 36.6144 8.45547Z" fill="#5282FF"/>
<path d="M48.8399 12.6897C48.6667 12.7967 48.5107 12.9099 48.3924 13.0252C48.8746 13.3781 49.3392 13.7534 49.7837 14.1551C49.9736 14.1943 50.1664 14.2303 50.3541 14.2621C49.8925 13.7059 49.3852 13.1798 48.8399 12.6897Z" fill="#5282FF"/>
<path d="M52.1143 23.8674C51.799 24.1843 52.1231 25.2898 52.6374 26.5225C52.7157 25.5584 52.7893 24.5943 52.8729 23.6335C52.5743 23.6136 52.3058 23.6744 52.1143 23.8674Z" fill="#5282FF"/>
<path d="M48.9812 36.4187C47.3795 38.6234 47.7237 40.2707 48.0114 40.979C48.3861 40.9554 48.7445 40.9691 49.0866 41.0104C50.3955 38.7863 51.1813 36.4241 51.6903 33.9917C50.7794 34.5223 49.7954 35.2972 48.9812 36.4183V36.4187Z" fill="#5282FF"/>
<path d="M42.9667 43.997C42.4348 43.5821 41.3144 42.9114 40.522 43.8722C40.0101 44.4925 39.8152 46.5558 39.7512 48.5432C40.3814 48.2403 41.0054 47.913 41.6231 47.5621C41.7188 46.2955 42.2533 45.0392 42.9667 43.997Z" fill="#5282FF"/>
<path d="M53.4718 24.8703C53.4614 24.4786 53.4471 24.1038 53.4312 23.7438C53.241 23.6855 53.0515 23.645 52.873 23.6335C52.7893 24.5943 52.7153 25.5584 52.6375 26.5225C52.8813 27.1069 53.1678 27.7201 53.4496 28.2917C53.4965 27.1717 53.5036 26.0295 53.4718 24.8703Z" fill="#5282FF"/>
<path d="M49.0866 41.0108C49.6265 41.0765 50.1241 41.2133 50.575 41.391C51.6188 39.1594 52.392 36.6059 52.88 33.766C52.9022 33.6371 52.924 33.5078 52.9445 33.3772C52.5631 33.5317 52.1352 33.7334 51.6903 33.9925C51.1813 36.4245 50.3956 38.7867 49.0866 41.0112V41.0108Z" fill="#5282FF"/>
<path d="M41.6231 47.5617C41.0054 47.9126 40.3815 48.2399 39.7513 48.5428C39.7191 49.5404 39.7199 50.5185 39.7303 51.2855C40.2305 51.1215 40.7152 50.9401 41.1865 50.7413C41.5369 50.5929 41.882 50.4326 42.2207 50.2623C41.9781 49.8586 41.8242 49.4478 41.731 49.0519C41.616 48.5618 41.5859 48.0609 41.6235 47.5617H41.6231Z" fill="#5282FF"/>
<path d="M37.4532 25.2361C37.1325 25.4001 36.3663 25.744 35.4865 25.7944C35.4785 26.3291 35.369 26.9412 35.0277 27.5011C34.8634 27.7714 34.6564 28.0078 34.41 28.2127C34.4184 28.216 34.4276 28.2189 34.4364 28.2222C35.7897 27.6664 37.0162 26.642 37.4532 25.2361Z" fill="#CF3850"/>
<path d="M37.7518 22.7826C36.0113 21.9602 34.0542 22.7293 33.4725 23.6198C33.3265 23.843 33.2751 24.055 33.3156 24.2546C34.8036 22.7454 37.3964 22.8896 39.0729 24.0926C38.7781 23.5405 38.3557 23.0677 37.7518 22.7826Z" fill="#FF91A1"/>
<path d="M33.3156 24.2546C33.3528 24.4364 33.4666 24.6083 33.6581 24.7683C35.1573 26.0179 37.3437 24.7588 37.3658 24.7464C37.4796 24.6794 37.6251 24.7166 37.6924 24.8282C37.7602 24.9406 37.7225 25.0852 37.6096 25.1509C37.5958 25.1588 37.5415 25.1906 37.4528 25.2361C37.0158 26.642 35.7892 27.6664 34.4359 28.2222C34.8466 28.3772 35.3221 28.4904 35.88 28.5487C37.0906 28.676 37.9505 27.8825 38.4586 27.1953C38.8751 26.632 39.2176 25.9237 39.4698 25.1249C39.3744 24.7678 39.2456 24.4166 39.0725 24.0926C37.3955 22.8896 34.8031 22.7458 33.3152 24.2546H33.3156Z" fill="#E85169"/>
<path d="M39.8269 20.3535C39.9779 21.354 39.9795 22.3908 39.8491 23.3876C39.8093 23.6917 39.7575 23.9885 39.6939 24.2773C39.361 23.4793 38.8211 22.7652 37.9572 22.3569C36.1372 21.4978 33.8367 22.1929 33.0714 23.3649C32.6662 23.9856 32.7703 24.6451 33.3503 25.129C33.8718 25.5642 34.4498 25.7473 35.0068 25.7894C34.9997 26.256 34.9073 26.7845 34.6187 27.2581C34.4439 27.5441 34.2101 27.7883 33.9191 27.9896C32.6377 27.3023 32.1141 26.1266 31.6031 24.9782C31.0611 23.7599 30.5493 22.6102 29.214 22.142C28.1848 21.7808 26.9256 22.0139 25.7078 22.2396C23.6754 22.6164 22.4037 22.7499 21.8759 21.4337C21.5698 20.6708 21.9236 19.5493 22.8235 18.4335C23.2982 17.8446 23.9037 17.2735 24.6176 16.754C24.6414 16.9958 24.6945 17.2206 24.7916 17.4107C24.9434 17.7091 25.1809 17.9041 25.4991 17.9913C25.6597 18.0347 25.8153 18.0549 25.9667 18.0541C27.1907 18.0541 28.0907 16.754 28.3362 16.3577C29.1721 16.2932 34.1963 16.0122 36.5499 18.2955C36.4483 18.7645 36.1915 20.3134 37.1032 20.8692C37.3044 20.9924 37.5444 21.0391 37.7907 21.0391C38.1198 21.0391 38.4598 20.956 38.7383 20.8638C39.0896 20.7477 39.4727 20.5671 39.8273 20.3539L39.8269 20.3535Z" fill="black"/>
<path d="M30.7818 8.38068C29.6021 8.64599 28.4943 8.96585 27.4847 9.30182C27.8494 8.42035 28.3123 7.61781 28.7046 7.54632C29.1337 7.4678 29.9826 7.87692 30.7814 8.38027L30.7818 8.38068Z" fill="#0047FF"/>
<path d="M36.437 31.8783C40.0996 36.3365 32.0414 39.5896 28.6021 40.731C28.6118 40.6794 28.6109 40.6248 28.598 40.5707C28.5469 40.3595 28.3332 40.2289 28.1195 40.2785C26.5618 40.643 25.0881 41.3021 23.8577 42.1857C22.6629 43.044 21.7274 44.1015 21.1261 45.2694C19.7573 45.6252 16.4929 46.1852 13.6103 44.4871C9.84737 42.2696 6.88823 34.2252 9.17199 28.7301C11.9856 21.9602 31.836 26.2779 36.4374 31.8783H36.437ZM16.7417 39.3024C16.8651 39.2578 16.9287 39.1218 16.8831 38.9999C16.8371 38.8772 16.7003 38.8152 16.5761 38.8602L15.2939 39.3276L14.6328 38.4556C14.5533 38.3519 14.404 38.3308 14.2991 38.4085C14.1932 38.4871 14.1719 38.6346 14.2514 38.7383L14.8276 39.4979L13.9206 39.8285C13.7972 39.8731 13.7337 40.0091 13.7801 40.131C13.8152 40.226 13.9064 40.2851 14.0034 40.2851C14.0314 40.2851 14.059 40.2806 14.0862 40.2711L15.1258 39.8917L15.8752 40.879C15.9221 40.941 15.9936 40.9732 16.0668 40.9732C16.1161 40.9732 16.1663 40.9583 16.2089 40.9261C16.3147 40.8484 16.3361 40.7009 16.2566 40.5963L15.5929 39.7214L16.7413 39.3028L16.7417 39.3024Z" fill="white"/>
<path d="M44.9577 44.3321C47.2649 43.1577 50.0639 42.713 52.4898 43.585C52.1912 43.2961 51.8345 42.9936 51.423 42.7204C49.6578 41.5464 47.763 41.4356 45.7916 42.3898C44.3196 43.1023 42.5556 45.4297 42.4126 47.6745C42.8404 46.2839 43.6885 44.9962 44.9577 44.3321Z" fill="#5282FF"/>
<path d="M54.1413 44.9375C54.1275 44.9487 54.1141 44.9607 54.0983 44.9702C53.9113 45.0842 53.6667 45.0268 53.5513 44.8421C53.5458 44.8338 53.1711 44.2449 52.4895 43.5854C50.0639 42.7134 47.265 43.1581 44.9574 44.3325C43.6881 44.9966 42.84 46.2843 42.4122 47.6749C42.3863 48.0812 42.4131 48.4845 42.5046 48.875C43.045 51.1769 45.7022 52.4046 50.1911 52.4303C51.8442 52.2224 53.4676 51.6736 54.9723 50.7735C55.1316 50.6739 55.288 50.5681 55.4419 50.4574C55.4561 48.5279 55.1015 46.6183 54.1413 44.938V44.9375Z" fill="#0047FF"/>
<path d="M58.4867 45.3925C58.4474 47.3824 57.1368 49.2374 55.4419 50.4565C55.4385 50.9235 55.4134 51.3917 55.3704 51.8579C56.4388 51.5942 57.4241 51.243 58.3019 50.8053C59.4724 50.221 60.4297 49.4928 61.1159 48.6775C60.4891 47.4142 59.5837 46.2852 58.4867 45.3921V45.3925Z" fill="#5282FF"/>
<path d="M58.4867 45.3925C57.0419 44.2168 55.2641 43.4498 53.3475 43.3271C53.905 43.9185 54.2069 44.3962 54.227 44.4292C54.3332 44.5983 54.2922 44.814 54.1413 44.9371C55.1014 46.6174 55.4561 48.5275 55.4419 50.4566C57.1364 49.2375 58.4474 47.3819 58.4867 45.3925Z" fill="#5282FF"/>
<path d="M58.2312 43.7825C57.8862 42.9167 57.3095 42.2448 56.5982 41.7381C56.586 41.739 56.5739 41.7394 56.5618 41.7402C55.331 41.8117 54.1668 42.4047 53.128 43.1035C53.2045 43.1791 53.2785 43.2544 53.3471 43.3275C55.2637 43.4502 57.0415 44.2168 58.4863 45.393C58.4968 44.8623 58.4182 44.3226 58.2308 43.7825H58.2312Z" fill="#0047FF"/>
<path d="M51.8396 40.469C51.6664 40.8976 51.4849 41.3166 51.2938 41.7253C51.5067 41.8398 51.7062 41.9609 51.8898 42.0844C51.9312 42.1121 51.9709 42.1402 52.011 42.1683C52.1294 41.5728 52.3493 41.0071 52.6496 40.4835C52.3774 40.4678 52.1068 40.4632 51.8392 40.4694L51.8396 40.469Z" fill="#0047FF"/>
<path d="M50.191 52.4298C50.2391 52.4298 50.286 52.4311 50.3345 52.4311C52.1465 52.4311 53.8444 52.2352 55.3704 51.8587C55.4139 51.3926 55.4385 50.9244 55.4419 50.4574C55.2884 50.5677 55.1316 50.6735 54.9723 50.7735C53.4672 51.6736 51.8442 52.2224 50.191 52.4302V52.4298Z" fill="#0047FF"/>
<path d="M60.2215 41.7216C58.9861 41.6108 57.719 41.6732 56.5986 41.7381C57.31 42.2448 57.8863 42.9167 58.2317 43.7825C58.419 44.3226 58.4977 44.8623 58.4872 45.3929C59.5845 46.286 60.4899 47.415 61.1164 48.6783C61.5409 48.1741 61.8625 47.6369 62.0657 47.0798C62.7432 45.2285 62.0695 43.2812 60.2215 41.7216Z" fill="#0047FF"/>
<path d="M52.65 40.4831C52.885 40.0731 53.1686 39.6892 53.4906 39.3367C53.0891 39.3284 52.6789 39.3371 52.2598 39.3636C52.1268 39.7396 51.9859 40.1074 51.84 40.4694C52.1076 40.4632 52.3782 40.4678 52.6504 40.4835L52.65 40.4831Z" fill="#0047FF"/>
<path d="M52.0114 42.1679C52.4447 42.4704 52.8181 42.7956 53.1284 43.1035C54.1672 42.4047 55.3315 41.8117 56.5622 41.7402C56.5739 41.7394 56.5865 41.739 56.5986 41.7381C55.492 40.9501 54.0572 40.5645 52.6504 40.4831C52.3502 41.0067 52.1302 41.5724 52.0118 42.1679H52.0114Z" fill="#5282FF"/>
<path d="M60.2214 41.7216C60.1934 41.698 60.1662 41.6741 60.1374 41.6505C58.3253 40.1636 56.0951 39.3888 53.4906 39.3363C53.1686 39.6888 52.885 40.0727 52.65 40.4827C54.0572 40.5641 55.4917 40.9496 56.5982 41.7377C57.7185 41.6728 58.9857 41.6104 60.221 41.7212L60.2214 41.7216Z" fill="#5282FF"/>
<path d="M9.28326 16.3007C9.07291 16.1003 8.90019 15.8507 8.77181 15.5502C8.68691 15.3506 8.78143 15.1196 8.98341 15.0357C9.18624 14.9518 9.41917 15.0452 9.50407 15.2448C9.6128 15.4986 9.94275 16.2697 11.3052 16.0548C11.9769 15.9486 12.7773 15.6056 13.4899 15.1262C13.124 14.1026 12.6276 13.1422 11.6544 12.7575C10.4772 12.2653 9.14609 12.462 8.10019 13.1137C7.27342 13.9844 6.70049 15.1043 6.32579 16.0478C5.70435 17.6124 5.41412 18.8926 5.41412 20.077C5.41329 21.2841 5.90592 22.2817 6.9213 23.1268C7.20274 23.3616 7.50635 23.5979 7.83631 23.8401C8.6108 22.7743 9.4405 21.7416 10.3216 20.7473C9.25482 19.6005 9.04489 17.8492 9.2841 16.3007H9.28326Z" fill="#0047FF"/>
<path d="M12.1701 16.8668C12.127 16.8065 12.0889 16.7458 12.0526 16.6846C11.8418 16.7482 11.6335 16.7978 11.4311 16.8301C10.5287 16.9731 9.79305 16.7854 9.28369 16.3007C9.0449 17.8492 9.25442 19.6005 10.3212 20.7473C10.5797 20.4555 10.8423 20.1671 11.1095 19.8819C11.7899 19.1571 12.495 18.4595 13.2231 17.7888C12.7844 17.5438 12.4314 17.2375 12.1701 16.8668Z" fill="#5282FF"/>
<path d="M13.9461 12.0066C13.3715 11.5896 12.0618 11.0272 9.75165 11.9541C9.11307 12.2099 8.56607 12.6223 8.09937 13.1137C9.14527 12.462 10.4764 12.2653 11.6536 12.7574C12.6267 13.1422 13.1236 14.1026 13.4891 15.1262C13.561 15.0779 13.6321 15.0287 13.7019 14.9779C14.4634 14.4204 14.8323 13.9034 14.8528 13.6583C14.8917 13.1926 14.6261 12.5004 13.9457 12.0066H13.9461Z" fill="#5282FF"/>
<path d="M13.1009 48.8168C12.8073 48.6147 12.518 48.4002 12.2344 48.1704C10.9075 47.096 9.92013 45.9112 9.25102 44.9673C10.1393 46.5625 11.1279 48.1494 12.3122 49.5379C10.9351 50.6892 9.33842 51.5013 7.64014 52.0567C8.56853 52.3761 9.56718 52.4989 10.6018 52.3517C11.7514 52.1885 12.8295 51.6996 13.8236 51.0892C14.3496 50.7661 14.8527 50.4094 15.3295 50.0474C14.5608 49.721 13.8169 49.3094 13.1009 48.8163V48.8168Z" fill="#5282FF"/>
<path d="M8.31555 26.6597C11.654 21.8685 14.5153 17.7058 19.3638 14.3282C19.6311 14.1171 19.8268 13.8703 20.0225 13.6356C11.6465 18.7277 5.23806 26.9366 2.60301 36.3427C1.40698 40.6141 1.36307 44.0722 2.46877 46.9162C2.88864 47.9964 3.57281 49.0643 4.44725 49.9681C4.00815 48.9887 3.65561 47.9621 3.467 46.8455C2.19527 39.6194 4.10308 32.7862 8.31555 26.6597Z" fill="#5282FF"/>
<path d="M50.3537 14.2621C50.1663 14.2303 49.9731 14.1943 49.7833 14.1551C49.9209 14.2795 50.0559 14.4063 50.1893 14.5361C50.2312 14.52 50.2755 14.5088 50.3227 14.5072C50.3457 14.5063 50.426 14.5047 50.5515 14.5047C50.4862 14.4229 50.4202 14.3423 50.3537 14.2621Z" fill="#5282FF"/>
<path d="M34.2908 8.59267C35.126 8.63441 35.9649 8.67409 36.8013 8.73401C36.7314 8.64309 36.6691 8.5497 36.6143 8.45547C35.8269 8.46457 35.0507 8.51292 34.2913 8.59267H34.2908Z" fill="#5282FF"/>
<path d="M43.844 10.3209C43.9507 10.3722 44.0569 10.425 44.1627 10.4796C45.6339 11.2549 47.0746 12.0607 48.3919 13.0252C48.5103 12.9099 48.6663 12.7967 48.8394 12.6897C47.9064 11.8479 46.8617 11.1102 45.7401 10.5094C45.1534 10.4531 44.5073 10.3891 43.8436 10.3209H43.844Z" fill="#5282FF"/>
<path d="M52.6684 22.1404C53.9205 21.3213 56.9909 18.8401 56.172 17.2156C55.3185 15.5221 51.6781 15.2535 50.3474 15.2928C50.1279 15.2973 49.9443 15.1287 49.938 14.9117C49.9326 14.7419 50.038 14.5952 50.1894 14.5361C50.0559 14.4063 49.9209 14.2795 49.7833 14.1551C48.9469 13.9819 48.1686 13.7381 48.1686 13.4286C48.1686 13.2955 48.2548 13.1587 48.3919 13.0248C47.0746 12.0603 45.634 11.2544 44.1627 10.4792C44.0569 10.4246 43.9507 10.3717 43.8441 10.3205C41.4018 10.0688 38.7254 9.75474 37.9208 9.51381C37.4152 9.36215 37.056 9.06626 36.8013 8.73359C35.9649 8.67367 35.126 8.63399 34.2908 8.59225C31.5935 8.87533 29.1065 9.55307 27.0862 10.2701C24.6151 11.147 22.2494 12.2814 20.0225 13.6352C19.8263 13.8699 19.631 14.1162 19.3638 14.3278C14.5153 17.7053 11.654 21.868 8.31553 26.6593C4.10306 32.7858 2.19525 39.6194 3.46698 46.8451C3.65517 47.9617 4.00771 48.9883 4.44723 49.9677C5.33924 50.8896 6.42947 51.6405 7.64015 52.0571C9.33843 51.5013 10.9351 50.6896 12.3122 49.5383C11.1279 48.1498 10.1389 46.5629 9.25103 44.9677C8.55348 43.9837 8.20136 43.2626 8.17376 43.2052C8.07925 43.0097 8.16331 42.7754 8.36195 42.682C8.55976 42.5894 8.79687 42.6725 8.89138 42.868C8.90393 42.894 10.1782 45.4983 12.7597 47.5799C15.3303 49.6536 18.2251 50.4987 21.3954 50.1123C20.986 49.6503 20.7062 49.1453 20.5665 48.6043C20.3495 47.7704 20.4607 46.7939 20.8869 45.7814C20.9592 45.6087 21.0395 45.438 21.1261 45.2694C19.7573 45.6252 16.4929 46.1852 13.6103 44.4871C9.84738 42.2696 6.88823 34.2252 9.17199 28.7301C11.9856 21.9602 31.836 26.2779 36.4374 31.8783C40.1 36.3365 32.0418 39.5896 28.6026 40.731C28.5754 40.8802 28.4612 41.0058 28.3027 41.0434C25.858 41.6146 22.8185 43.2386 21.6204 46.0827C21.3699 46.6782 21.1173 47.5654 21.336 48.4093C21.538 49.1858 22.0938 49.7945 22.7416 50.2607C24.3867 50.7747 26.0875 51.0954 27.7892 51.1653C31.9636 51.2983 35.967 50.3603 39.7508 48.5424C39.8148 46.555 40.0097 44.4916 40.5215 43.8713C41.314 42.9105 42.4348 43.5816 42.9663 43.9961C43.6981 42.9262 44.6173 42.0828 45.4416 41.684C46.362 41.2377 47.2218 41.0273 48.0114 40.9786C47.7237 40.2702 47.3795 38.623 48.9812 36.4183C49.7954 35.2971 50.7794 34.5223 51.6902 33.9917C52.2013 31.5498 52.4342 29.0368 52.6379 26.5221C52.1235 25.2894 51.799 24.1839 52.1147 23.867C52.3062 23.6744 52.5747 23.6136 52.8733 23.633C52.8959 23.3735 52.9193 23.1148 52.9436 22.8557C52.9252 22.8582 52.9068 22.8594 52.8888 22.8594C52.76 22.8594 52.6329 22.7975 52.5568 22.6834C52.4359 22.5028 52.4861 22.2594 52.6688 22.1391L52.6684 22.1404ZM41.0735 12.4103C41.2032 12.3843 44.2694 11.7913 46.7217 13.3191C46.8701 13.4116 46.9149 13.6059 46.8212 13.7517C46.7275 13.8984 46.531 13.9427 46.3825 13.8505C45.2212 13.1265 43.8742 12.9314 42.8438 12.9112C45.4541 14.0526 47.3314 16.4825 47.4251 16.6061C47.5309 16.7445 47.502 16.9416 47.3624 17.0458C47.3051 17.0883 47.2377 17.1094 47.1717 17.1094C47.0746 17.1094 46.9801 17.066 46.9174 16.9846C46.891 16.9499 44.2698 13.5608 41.084 13.0277C40.933 13.0025 40.8218 12.8744 40.8193 12.7236C40.8168 12.5719 40.9243 12.4409 41.0735 12.4103ZM42.3127 15.4651C42.3127 15.7721 42.0613 16.0205 41.7506 16.0205C41.4399 16.0205 41.1885 15.7721 41.1885 15.4651C41.1885 15.158 41.4403 14.9097 41.7506 14.9097C42.0609 14.9097 42.3127 15.1589 42.3127 15.4651ZM40.8661 16.3486C40.8661 16.5953 40.6641 16.7953 40.4141 16.7953C40.164 16.7953 39.962 16.5949 39.962 16.3486C39.962 16.1023 40.1648 15.9019 40.4141 15.9019C40.6633 15.9019 40.8661 16.1015 40.8661 16.3486ZM39.9243 13.7253C40.3195 13.7253 40.6399 14.0418 40.6399 14.4324C40.6399 14.8229 40.3195 15.1394 39.9243 15.1394C39.5292 15.1394 39.2084 14.8229 39.2084 14.4324C39.2084 14.0418 39.5287 13.7253 39.9243 13.7253ZM29.922 11.1342C30.0324 11.1168 32.3295 10.7594 34.0044 10.9953C33.8271 10.7685 33.5594 10.5172 33.1676 10.3428C33.0078 10.2713 32.9372 10.0853 33.0095 9.92665C33.0818 9.76879 33.2696 9.69812 33.4298 9.77044C34.5761 10.2816 34.9043 11.3098 34.9177 11.3532C34.952 11.4648 34.9219 11.5859 34.8383 11.6673C34.7546 11.7499 34.6325 11.7797 34.5196 11.745C33.022 11.2879 30.0524 11.7503 30.0223 11.7553C30.0056 11.7578 29.9889 11.7594 29.9722 11.7594C29.8187 11.7594 29.6836 11.6495 29.6581 11.4945C29.6301 11.3235 29.7488 11.1623 29.922 11.135V11.1342ZM36.1305 29.1116C36.028 29.1116 35.9256 29.107 35.8223 29.0959C32.6821 28.7669 31.8386 26.8713 31.0946 25.2001C30.581 24.0455 30.1378 23.0495 29.0279 22.6607C28.1409 22.3487 26.9566 22.5681 25.8111 22.7801C23.9836 23.1185 22.0938 23.469 21.3594 21.6366C20.973 20.6746 21.3481 19.3823 22.3886 18.0913C24.5022 15.468 29.0446 13.1847 34.4694 13.9365C34.9963 13.1141 35.7792 12.3909 36.3935 11.8966C36.1535 11.459 35.9206 10.9251 35.9682 10.4498C35.9778 10.354 36.0017 10.2564 36.0556 10.1758C36.1957 9.9655 36.4935 9.93078 36.7168 10.0126C37.0405 10.132 37.2747 10.4469 37.4114 10.7478C37.4114 10.7445 37.7698 10.6738 37.812 10.6668C38.0053 10.6337 38.2031 10.6354 38.3908 10.6945C38.6158 10.7643 38.8186 10.9135 38.9311 11.1177C39.0098 11.2582 39.0432 11.4309 38.9842 11.5801C38.9152 11.7545 38.7379 11.8619 38.5623 11.9313C38.0776 12.1231 37.5218 12.1396 36.9966 12.1276C36.4379 12.5566 35.627 13.25 35.0683 14.0369C39.4551 14.9551 40.9184 19.5051 40.4007 23.4591C39.9578 26.8465 38.2252 29.112 36.1301 29.112L36.1305 29.1116ZM51.4786 33.2061C51.4335 33.3842 51.2721 33.5028 51.0939 33.5028C51.0621 33.5028 51.0287 33.4991 50.996 33.4908C50.784 33.4383 50.6544 33.2247 50.7083 33.0139C50.7242 32.9503 52.0499 27.5817 49.9819 23.6029C49.9476 23.5368 49.9125 23.4735 49.877 23.4115C49.166 23.0028 48.3129 22.8962 47.5016 23.1256C46.0216 23.6132 44.417 25.4592 45.0142 27.0209C45.2538 27.204 45.5445 27.3499 45.8928 27.4602C46.1019 27.5263 46.2169 27.747 46.1504 27.9536C46.0827 28.1602 45.8594 28.2739 45.6503 28.2082C45.4834 28.1557 45.3266 28.0937 45.1781 28.0251C45.0844 28.2417 44.9828 28.4698 44.8754 28.7049C44.7875 28.9855 44.678 29.2669 44.6403 29.5661C44.0841 32.2366 42.4147 34.4359 42.7325 37.1064C42.7325 37.3766 42.8375 37.6982 43.0169 37.9387C43.5317 37.954 44.0841 37.8804 44.6458 37.6907C44.854 37.6209 45.079 37.73 45.1505 37.9349C45.2212 38.1408 45.1108 38.3639 44.9025 38.4337C44.297 38.6379 43.7023 38.7301 43.1403 38.7301C41.5465 38.7301 40.2183 37.9949 39.6638 37.0279C39.0708 35.9927 39.3928 34.8099 40.5253 33.864C42.2073 32.4589 43.6572 29.5434 44.4898 27.6073C43.7416 27.0089 43.3627 26.1089 43.3627 24.9141C43.3627 23.7194 45.0518 21.7246 46.95 21.2705C47.8512 21.0552 49.5349 21.0254 50.6891 23.2442C52.898 27.4933 51.5389 32.9751 51.4791 33.2061H51.4786Z" fill="#0047FF"/>
<path d="M53.3639 22.6193C53.2146 22.7247 53.1205 22.7867 53.1071 22.7954C53.0561 22.8285 53.0001 22.8487 52.9436 22.8566C52.9194 23.1153 52.8959 23.3744 52.8734 23.6339C53.0519 23.6455 53.2414 23.686 53.4316 23.7442C53.4124 23.3529 53.3902 22.9793 53.3639 22.6193Z" fill="#5282FF"/>
<path d="M27.7892 51.1657C26.088 51.0954 24.3868 50.7752 22.7416 50.2611C23.2079 50.5966 23.7218 50.8591 24.186 51.0558C27.0047 52.2521 30.5233 52.6724 34.643 52.3038C36.4575 52.1418 38.1617 51.8005 39.7299 51.286C39.7194 50.519 39.7186 49.5404 39.7508 48.5432C35.967 50.3611 31.9636 51.2992 27.7892 51.1661V51.1657Z" fill="#5282FF"/>
<path d="M52.6374 26.5225C52.4338 29.0372 52.2013 31.5498 51.6898 33.9921C52.1348 33.733 52.5622 33.5313 52.944 33.3768C53.2087 31.7461 53.3772 30.0455 53.4496 28.2917C53.1677 27.7201 52.8813 27.1069 52.6374 26.5225Z" fill="#5282FF"/>
<path d="M47.1361 22.0333C45.5495 22.4127 44.1569 24.0967 44.1569 24.9137C44.1569 25.8944 44.4279 26.5729 45.0134 27.0209C44.4162 25.4588 46.0208 23.6128 47.5008 23.1256C48.3121 22.8966 49.1652 23.0028 49.8761 23.4116C49.1945 22.2255 48.274 21.7618 47.1357 22.0338L47.1361 22.0333Z" fill="#5282FF"/>
<path d="M41.0376 34.4632C40.1957 35.167 39.9536 35.9398 40.3547 36.6406C40.7624 37.351 41.7811 37.9019 43.0161 37.9387C42.8366 37.6986 42.7317 37.3767 42.7317 37.1064C42.4139 34.4359 44.0829 32.2366 44.6395 29.5661C44.6771 29.267 44.7871 28.9855 44.8745 28.7049C43.9846 30.648 42.6292 33.1338 41.0372 34.4632H41.0376Z" fill="#5282FF"/>
<path d="M61.5609 11.9256C61.9335 12.371 62.1347 12.8847 62.1276 13.3707C62.1163 14.1555 61.5864 14.8026 60.7755 15.0188C60.6024 15.0651 60.4163 15.0903 60.2264 15.0903C59.6334 15.0903 59.0057 14.846 58.6352 14.2373C57.6855 12.6744 56.7475 11.8165 54.7594 12.0595C54.6473 12.0727 54.5415 12.0078 54.5043 11.9032C54.4679 11.7979 54.5097 11.6817 54.6059 11.6243C54.682 11.578 56.4953 10.5052 58.4776 10.5374C59.7518 10.5577 60.8173 11.0379 61.5609 11.926V11.9256ZM61.6508 13.3637C61.6562 12.9897 61.4936 12.5851 61.1929 12.2256C60.5418 11.447 59.6 11.0263 58.4696 11.0073C57.4751 10.99 56.5016 11.2879 55.8174 11.5648C57.33 11.7036 58.2066 12.6165 59.0438 13.9943C59.4047 14.5873 60.1114 14.7076 60.6517 14.5638C61.1285 14.4365 61.6412 14.0546 61.6508 13.3637Z" fill="black"/>
<path d="M60.5652 26.6651C60.8403 27.1544 61.4601 28.4276 61.2757 29.6876C61.1849 30.3059 60.7885 30.8125 60.2147 31.0419C60.0098 31.1245 59.7957 31.1646 59.5828 31.1646C59.206 31.1646 58.8309 31.039 58.5114 30.7956C58.0267 30.4249 57.6905 29.817 57.5395 29.0364C57.4664 28.6586 57.4388 28.2743 57.4116 27.9036C57.3932 27.6561 57.3744 27.4003 57.3426 27.1536C57.2518 26.4506 57.0461 25.758 56.7328 25.0927C56.7098 25.0456 56.6827 24.9844 56.6509 24.9137C56.2979 24.1269 56.0357 23.7008 55.8735 23.6483C55.748 23.6083 55.6794 23.4748 55.7208 23.3516C55.7622 23.2277 55.8965 23.1607 56.0211 23.2008H56.0219C58.0669 23.8636 59.6807 25.0943 60.5652 26.6663V26.6651ZM60.8035 29.6199C60.9173 28.8446 60.6722 27.8259 60.1487 26.8936C59.4478 25.6481 58.2475 24.629 56.7199 23.967C56.847 24.198 56.9687 24.4596 57.0862 24.722C57.1163 24.7889 57.1427 24.8476 57.164 24.8931C57.4986 25.6014 57.7181 26.3423 57.8151 27.0932C57.8486 27.3523 57.8682 27.6156 57.8866 27.8693C57.9138 28.2433 57.9398 28.5967 58.0075 28.9471C58.0974 29.412 58.3078 30.0443 58.8033 30.422C59.173 30.7038 59.6221 30.7708 60.0353 30.6051C60.451 30.4394 60.7379 30.0711 60.804 29.6203L60.8035 29.6199Z" fill="black"/>
<path d="M35.7215 5.1949C35.7454 5.32301 35.6596 5.44616 35.53 5.46971C35.5158 5.47219 35.5007 5.47384 35.4861 5.47384C35.374 5.47384 35.2741 5.3945 35.2523 5.28127C35.2322 5.20358 35.0712 5.0267 34.4097 4.62461C34.3595 4.59403 34.3168 4.56716 34.2825 4.54609C33.8217 4.25309 33.3278 4.03613 32.8168 3.90059C32.6365 3.85265 32.4471 3.81422 32.2643 3.77578C31.9879 3.71834 31.7014 3.65966 31.4225 3.56668C30.8383 3.37327 30.405 3.05672 30.1683 2.65256C29.922 2.22939 29.917 1.73183 30.1541 1.32188C30.395 0.90656 30.8328 0.655715 31.3271 0.651169H31.3493C32.3212 0.651169 33.2157 1.23386 33.5574 1.48594C34.6581 2.29964 35.4267 3.61668 35.7211 5.1949H35.7215ZM34.6606 4.22334C34.7956 4.30599 34.927 4.3874 35.0491 4.46922C34.6995 3.37203 34.0843 2.46411 33.2717 1.86407C32.6432 1.39916 31.9252 1.12269 31.3481 1.12269H31.3322C31.0093 1.126 30.7233 1.28758 30.5681 1.5562C30.4138 1.82316 30.4188 2.13682 30.5815 2.417C30.8057 2.80092 31.2443 3.01085 31.5735 3.11995C31.8261 3.20384 32.087 3.25756 32.3618 3.31459C32.5508 3.35385 32.7473 3.39476 32.9397 3.44559C33.4992 3.59312 34.0375 3.83033 34.5405 4.14936C34.5715 4.16961 34.6129 4.19482 34.6597 4.22334H34.6606Z" fill="black"/>
<path d="M25.2156 6.99297C25.2888 7.07686 25.2926 7.20042 25.2252 7.28927C25.1571 7.37812 25.0362 7.40705 24.9342 7.36076C23.4843 6.69171 22.5551 7.11488 21.4393 8.07321C21.1453 8.32613 20.8049 8.42903 20.4737 8.42903C20.1425 8.42903 19.7979 8.3191 19.5357 8.15008C18.9481 7.77071 18.6956 7.12025 18.8925 6.49293C19.0134 6.10571 19.3057 5.75073 19.7151 5.49368C20.5252 4.98538 21.482 4.87711 22.4836 5.18126C24.0313 5.65155 25.1675 6.93842 25.2152 6.99338L25.2156 6.99297ZM21.1269 7.71699C22.0599 6.91486 22.959 6.41772 24.1011 6.6041C23.6537 6.2458 23.0385 5.84206 22.3439 5.63171C22.0202 5.53335 21.7032 5.485 21.3963 5.485C20.8835 5.485 20.4018 5.62096 19.971 5.89206C19.657 6.08918 19.4353 6.3516 19.3479 6.63178C19.1873 7.14381 19.4742 7.54755 19.7962 7.75501C20.1617 7.99056 20.7159 8.07073 21.1269 7.7174V7.71699Z" fill="black"/>
<path d="M37.4712 11.0581C37.6373 11.0148 37.8083 10.9813 37.9806 10.9751C38.0918 10.9705 38.2135 10.9759 38.316 11.0238C38.4051 11.0664 38.5243 11.1941 38.4645 11.3003C38.4532 11.3214 38.4335 11.3359 38.4122 11.3458C38.3047 11.3991 38.1604 11.3747 38.0467 11.3569C37.9275 11.3379 37.8091 11.3098 37.6921 11.2776C37.5369 11.2358 37.383 11.1871 37.232 11.1321C37.232 11.1321 37.2312 11.1321 37.2312 11.1313C37.2463 11.1313 37.2843 11.1123 37.2948 11.1086C37.3529 11.0904 37.4114 11.073 37.4712 11.0581Z" fill="black"/>
<path d="M60.6454 41.0468C58.4976 39.2834 55.7057 38.4321 52.53 38.5639C53.0004 37.1056 53.3797 35.548 53.6633 33.8966C53.7101 33.6255 53.754 33.3532 53.7946 33.0784C53.9614 31.9779 54.0857 30.8476 54.1672 29.6922C54.2784 28.1206 54.3119 26.5019 54.2667 24.8493C54.2596 24.5852 54.2508 24.3294 54.2404 24.0794C54.2111 23.3537 54.1705 22.6851 54.1162 22.0553C54.5135 21.7395 54.9802 21.3403 55.426 20.8882C56.9561 19.3352 57.4458 17.9822 56.8829 16.8652C55.9997 15.1138 53.2187 14.6564 51.5727 14.5419C51.5443 14.5026 51.5154 14.4642 51.487 14.4258C50.9249 13.6687 50.2859 12.9571 49.5834 12.302C48.9498 11.7107 48.2648 11.1656 47.5392 10.6771C46.4511 9.94278 45.2709 9.33406 44.0331 8.88072C41.4453 7.93354 38.8057 7.61451 36.2881 7.67649C34.7559 7.71327 33.2683 7.89263 31.8666 8.15628C31.0201 7.54921 29.5113 6.60038 28.5599 6.77477C27.5909 6.95165 26.8716 8.58193 26.5003 9.6473C21.9093 11.3226 17.5973 13.9117 13.8466 17.2276C13.4029 17.0226 13.0612 16.7557 12.8253 16.4234C12.8199 16.4156 12.8149 16.4077 12.8094 16.399C14.2464 15.7544 15.5737 14.5807 15.6452 13.7232C15.7142 12.8893 15.232 11.9669 14.4166 11.3747C13.7086 10.8594 12.1211 10.1564 9.45301 11.2263C7.84505 11.871 6.50808 13.4389 5.58554 15.7614C4.92647 17.4202 4.6191 18.7918 4.6191 20.0774C4.61826 21.5304 5.20415 22.7243 6.40813 23.7281C6.70714 23.9765 7.02957 24.2269 7.37876 24.4831C4.87252 28.078 2.9873 32.0283 1.83727 36.1344C0.593974 40.5732 0.558428 44.1916 1.7277 47.198C2.42483 48.9928 3.68318 50.5913 5.27023 51.7C6.67159 52.6803 8.2415 53.1964 9.77543 53.1964C10.0912 53.1964 10.4048 53.1745 10.7155 53.1303C12.8308 52.8303 14.6595 51.5789 16.196 50.3764C16.6142 50.5161 17.0378 50.6334 17.4677 50.7252C18.2736 50.8963 19.0995 50.9818 19.943 50.9818C20.6623 50.9818 21.3946 50.9182 22.1368 50.7942C22.6186 51.1616 23.1995 51.4918 23.8728 51.7777C26.1327 52.7369 28.8079 53.2183 31.8544 53.2183C32.7749 53.2183 33.7288 53.1745 34.7149 53.0865C36.501 52.927 38.1859 52.5989 39.7462 52.1063C40.3496 51.917 40.9343 51.7025 41.4988 51.4636C41.9049 51.2926 42.303 51.1045 42.6945 50.9045C43.8232 52.1707 46.0517 53.2167 50.3353 53.2167C53.5399 53.2167 56.4188 52.6253 58.6603 51.5066C60.737 50.4706 62.2116 48.9932 62.8142 47.3468C63.6217 45.138 62.8318 42.8415 60.6459 41.0468H60.6454ZM28.705 7.54673C29.1341 7.46821 29.983 7.87734 30.7818 8.38068C29.602 8.64599 28.4942 8.96585 27.4847 9.30182C27.8494 8.42035 28.3123 7.61781 28.7046 7.54632L28.705 7.54673ZM6.92084 23.1268C5.90588 22.2817 5.41283 21.2841 5.41367 20.077C5.41367 18.8926 5.70389 17.6124 6.32533 16.0478C6.91122 14.5721 7.9818 12.6632 9.75202 11.9541C12.0617 11.0272 13.3715 11.5896 13.9465 12.0066C14.6269 12.5004 14.8925 13.1926 14.8536 13.6583C14.8331 13.9034 14.4642 14.4204 13.7027 14.9779C12.9403 15.5349 12.0446 15.9379 11.3056 16.0548C9.94313 16.2701 9.61359 15.4986 9.50444 15.2448C9.41955 15.0452 9.18662 14.9518 8.98379 15.0357C8.7818 15.1196 8.68729 15.3506 8.77219 15.5502C9.21087 16.5767 10.1552 17.0317 11.4311 16.8297C11.6339 16.7974 11.8422 16.7478 12.0525 16.6842C12.0889 16.7454 12.1274 16.8061 12.17 16.8664C12.4314 17.2371 12.7843 17.5433 13.223 17.7884C12.495 18.4591 11.7899 19.1567 11.1095 19.8815C9.92975 21.1374 8.83701 22.4611 7.83543 23.8393C7.50547 23.5975 7.20187 23.3611 6.92042 23.126L6.92084 23.1268ZM41.1864 50.7417C40.7151 50.9405 40.2304 51.1219 39.7303 51.286C38.1621 51.8005 36.4579 52.1422 34.6434 52.3038C30.5237 52.672 27.005 52.2521 24.1864 51.0558C23.0778 50.5855 21.6835 49.7449 21.336 48.4097C21.1173 47.5663 21.3703 46.6786 21.6204 46.0831C22.8181 43.2391 25.8575 41.6146 28.3027 41.0439C28.4608 41.0063 28.5754 40.8806 28.6026 40.7314C28.6122 40.6798 28.6113 40.6252 28.5988 40.5711C28.5478 40.3599 28.3341 40.2293 28.1204 40.2789C26.5626 40.6434 25.0889 41.3026 23.8586 42.1861C22.6638 43.0444 21.7283 44.1019 21.1269 45.2698C21.0403 45.4388 20.96 45.6091 20.8877 45.7818C20.4616 46.7943 20.3503 47.7704 20.5674 48.6048C20.7075 49.1461 20.9872 49.6511 21.3962 50.1127C18.2255 50.4991 15.3307 49.654 12.7605 47.5803C10.179 45.4987 8.90475 42.8944 8.89221 42.8684C8.7977 42.6729 8.56058 42.5894 8.36277 42.6824C8.16413 42.7758 8.07966 43.0101 8.17459 43.2056C8.22853 43.318 9.52494 45.9765 12.2353 48.1713C13.2105 48.9614 14.2464 49.5883 15.3303 50.0487C13.9536 51.0942 12.3607 52.1034 10.6026 52.353C6.89784 52.8799 3.64721 49.9449 2.46999 46.917C1.36429 44.073 1.4082 40.6145 2.60424 36.3435C5.9385 24.436 15.3199 14.446 27.0866 10.2705C29.6752 9.35141 33.0312 8.4968 36.6143 8.45548C38.9478 8.42779 41.3784 8.74682 43.7575 9.61714C44.4396 9.86674 45.1024 10.1655 45.7406 10.5094C46.8622 11.1102 47.9064 11.8479 48.8398 12.6897C49.3851 13.1798 49.892 13.7059 50.3541 14.2621C50.421 14.3423 50.4867 14.4233 50.5519 14.5047C50.4264 14.5047 50.3462 14.5063 50.3232 14.5072C50.1036 14.5142 49.9313 14.6948 49.9384 14.9117C49.9447 15.1287 50.1283 15.2973 50.3478 15.2928C51.6785 15.2535 55.3189 15.5221 56.1724 17.2156C56.9913 18.8401 53.9205 21.3213 52.6688 22.1404C52.4861 22.2606 52.4359 22.504 52.5567 22.6846C52.6328 22.7987 52.7604 22.8607 52.8888 22.8607C52.9636 22.8607 53.0397 22.8396 53.1075 22.7954C53.1209 22.7867 53.215 22.7247 53.3643 22.6193C53.3906 22.9789 53.4128 23.3529 53.432 23.7442C53.4479 24.1038 53.4621 24.4786 53.4726 24.8708C53.5044 26.0299 53.4972 27.1722 53.4504 28.2921C53.3781 30.0459 53.2095 31.7465 52.9448 33.3772C52.9243 33.5074 52.9026 33.6371 52.8804 33.7661C52.3924 36.6063 51.6191 39.1598 50.5753 41.391C49.8393 41.1013 48.9787 40.9191 48.0118 40.9794C47.2227 41.0282 46.3624 41.2385 45.442 41.6848C44.6177 42.084 43.699 42.9275 42.9667 43.997C41.9722 45.45 41.3244 47.3195 41.7309 49.0523C41.8238 49.4482 41.9781 49.859 42.2206 50.2627C41.8819 50.433 41.5369 50.5933 41.1864 50.7417ZM62.0661 47.0799C61.5337 48.5378 60.1967 49.8602 58.3023 50.8062C56.1703 51.8691 53.4157 52.4311 50.3349 52.4311C45.7581 52.4311 43.0512 51.2012 42.505 48.8746C41.9074 46.3253 44.0532 43.2312 45.7916 42.3898C47.763 41.4356 49.6578 41.5464 51.423 42.7204C52.7734 43.618 53.5437 44.8301 53.5516 44.8421C53.667 45.0268 53.9117 45.0838 54.0986 44.9702C54.2855 44.8561 54.3433 44.6144 54.2274 44.4297C54.194 44.3747 53.3747 43.0787 51.8905 42.0844C51.707 41.9613 51.5075 41.8402 51.2946 41.7253C51.6467 40.972 51.9696 40.1851 52.2602 39.3636C55.3984 39.1665 58.0468 39.9347 60.1378 41.6509C62.0502 43.2217 62.7536 45.2004 62.0661 47.0799Z" fill="black"/>
<path d="M44.9021 38.4333C45.1103 38.3635 45.2207 38.1403 45.1501 37.9345C45.0786 37.7296 44.8536 37.6205 44.6453 37.6903C42.7371 38.3346 40.9326 37.6469 40.3546 36.6402C39.9532 35.9398 40.1957 35.1666 41.0375 34.4628C42.8228 32.9722 44.3107 30.0273 45.1777 28.0243C45.3261 28.0925 45.4829 28.1549 45.6498 28.2074C45.8589 28.2735 46.0822 28.1594 46.15 27.9528C46.2169 27.7462 46.1015 27.5255 45.8924 27.4594C44.6921 27.0792 44.1573 26.2944 44.1573 24.9129C44.1573 24.0959 45.5499 22.4119 47.1365 22.0325C48.3342 21.7466 49.2914 22.2743 49.9819 23.6017C52.0499 27.5809 50.7242 32.9495 50.7083 33.0127C50.6543 33.223 50.784 33.4367 50.996 33.4896C51.0286 33.4974 51.0621 33.5016 51.0939 33.5016C51.272 33.5016 51.4334 33.383 51.4786 33.2049C51.5384 32.9738 52.8975 27.4924 50.6886 23.243C49.5344 21.0242 47.8512 21.0539 46.9496 21.2692C45.0514 21.7234 43.3623 23.6851 43.3623 24.9129C43.3623 26.1407 43.7416 27.0077 44.4893 27.6061C43.6563 29.5422 42.2064 32.4577 40.5248 33.8628C39.3924 34.8083 39.0704 35.9914 39.6634 37.0266C40.2183 37.9936 41.5465 38.7288 43.1398 38.7288C43.7019 38.7288 44.2961 38.6371 44.9021 38.4325V38.4333Z" fill="black"/>
<path d="M41.0835 13.0273C44.2694 13.5608 46.8906 16.9499 46.9169 16.9842C46.9797 17.066 47.0742 17.109 47.1712 17.109C47.2373 17.109 47.3046 17.0879 47.3619 17.0454C47.502 16.9408 47.5304 16.7437 47.4246 16.6057C47.331 16.4825 45.4533 14.0522 42.8433 12.9108C43.8733 12.931 45.2207 13.1261 46.3821 13.8501C46.5305 13.9418 46.7271 13.898 46.8208 13.7513C46.9144 13.605 46.8701 13.4112 46.7212 13.3186C44.2694 11.7908 41.2027 12.3839 41.0731 12.4099C40.9238 12.4405 40.8163 12.5719 40.8188 12.7231C40.8213 12.874 40.9326 13.0021 41.0835 13.0273Z" fill="black"/>
<path d="M41.7506 16.0201C42.061 16.0201 42.3126 15.7714 42.3126 15.4647C42.3126 15.1579 42.061 14.9093 41.7506 14.9093C41.4402 14.9093 41.1885 15.1579 41.1885 15.4647C41.1885 15.7714 41.4402 16.0201 41.7506 16.0201Z" fill="black"/>
<path d="M39.9611 16.3482C39.9611 16.5949 40.1639 16.7949 40.4132 16.7949C40.6624 16.7949 40.8653 16.5945 40.8653 16.3482C40.8653 16.1019 40.6633 15.9015 40.4132 15.9015C40.1631 15.9015 39.9611 16.1011 39.9611 16.3482Z" fill="black"/>
<path d="M39.9239 15.1386C40.3191 15.1386 40.6394 14.8221 40.6394 14.4315C40.6394 14.041 40.3191 13.7245 39.9239 13.7245C39.5287 13.7245 39.2079 14.041 39.2079 14.4315C39.2079 14.8221 39.5283 15.1386 39.9239 15.1386Z" fill="black"/>
<path d="M35.0682 14.0361C35.627 13.2492 36.4378 12.5554 36.9965 12.1268C37.5218 12.1388 38.0776 12.1223 38.5623 11.9305C38.7379 11.8615 38.9152 11.7537 38.9842 11.5793C39.0432 11.4301 39.0097 11.2573 38.9311 11.1168C38.8182 10.9127 38.6154 10.7635 38.3908 10.6937C38.203 10.6346 38.0052 10.6333 37.812 10.666C37.7698 10.673 37.4114 10.7437 37.4114 10.747C37.2746 10.4461 37.04 10.1312 36.7168 10.0118C36.4935 9.92998 36.1953 9.96469 36.0556 10.175C36.0017 10.256 35.9778 10.3531 35.9682 10.449C35.9205 10.9243 36.1535 11.4582 36.3935 11.8958C35.7792 12.3901 34.9963 13.1133 34.4694 13.9356C29.0446 13.1839 24.5021 15.4672 22.3886 18.0905C21.3481 19.3819 20.973 20.6738 21.3594 21.6358C22.0938 23.4682 23.984 23.1177 25.8111 22.7793C26.9565 22.5673 28.1409 22.3483 29.0278 22.6599C30.1373 23.0487 30.581 24.0447 31.0946 25.1993C31.8385 26.8709 32.682 28.7661 35.8223 29.095C35.9255 29.1062 36.028 29.1108 36.1305 29.1108C38.2256 29.1108 39.9582 26.8457 40.4011 23.4578C40.9184 19.5038 39.4551 14.9539 35.0687 14.0357L35.0682 14.0361ZM37.2947 11.1086C37.3528 11.0904 37.4114 11.073 37.4712 11.0582C37.6372 11.0148 37.8083 10.9813 37.9806 10.9751C38.0918 10.9705 38.2135 10.9759 38.3159 11.0239C38.405 11.0664 38.5242 11.1941 38.4644 11.3003C38.4531 11.3214 38.4335 11.3359 38.4121 11.3458C38.3047 11.3991 38.16 11.3747 38.0466 11.3569C37.9274 11.3379 37.8091 11.3098 37.692 11.2776C37.5369 11.2359 37.383 11.1871 37.232 11.1321C37.232 11.1321 37.2312 11.1321 37.2312 11.1313C37.2462 11.1313 37.2843 11.1123 37.2947 11.1086ZM34.5677 14.5047C37.5858 14.9593 39.2017 17.2285 39.7382 19.8534C39.4003 20.0741 38.998 20.2799 38.5865 20.4159C38.0445 20.5956 37.5954 20.6147 37.3537 20.4675C36.7256 20.0836 36.9167 18.7591 37.043 18.2818C37.0635 18.2025 37.0413 18.1178 36.984 18.0587C34.3109 15.3056 28.4181 15.8722 28.1685 15.8978C28.0907 15.9056 28.0213 15.9503 27.984 16.018C27.9736 16.037 26.9214 17.8888 25.6267 17.5355C25.4414 17.4851 25.308 17.3752 25.2181 17.1987C25.1156 16.9974 25.0776 16.7297 25.0797 16.4338C27.4211 14.9043 30.7713 13.9328 34.5677 14.5047ZM38.4594 27.1953C37.9513 27.8826 37.0915 28.676 35.8808 28.5487C35.3108 28.4892 34.827 28.3727 34.4104 28.2127C34.6567 28.0078 34.8633 27.7714 35.0281 27.5011C35.3689 26.9412 35.4789 26.3291 35.4869 25.7944C36.6101 25.7299 37.5477 25.1881 37.6105 25.1509C37.7234 25.0848 37.7606 24.9406 37.6933 24.8282C37.6255 24.7166 37.4804 24.6798 37.3666 24.7464C37.3445 24.7588 35.1577 26.018 33.6589 24.7683C33.2566 24.4327 33.1939 24.0463 33.4728 23.6198C34.0545 22.7293 36.0117 21.9602 37.7522 22.7826C38.7107 23.2351 39.213 24.1596 39.4706 25.1249C39.2188 25.9237 38.8759 26.6321 38.4594 27.1953ZM39.8495 23.3876C39.8097 23.6917 39.7579 23.9885 39.6943 24.2773C39.3614 23.4793 38.8215 22.7652 37.9576 22.3569C36.1376 21.4978 33.8371 22.1929 33.0718 23.3649C32.6666 23.9856 32.7707 24.6451 33.3507 25.129C33.8722 25.5642 34.4502 25.7473 35.0072 25.7894C35.0001 26.256 34.9077 26.7845 34.6191 27.2581C34.4443 27.5441 34.2105 27.7883 33.9195 27.9892C32.6381 27.3019 32.1145 26.1262 31.6035 24.9778C31.0615 23.7595 30.5497 22.6099 29.2144 22.1416C28.1852 21.7805 26.926 22.0135 25.7082 22.2392C23.6758 22.616 22.4041 22.7495 21.8763 21.4333C21.5702 20.6705 21.924 19.5489 22.8239 18.4331C23.2986 17.8442 23.9041 17.2731 24.618 16.7536C24.6418 16.9954 24.6949 17.2202 24.792 17.4103C24.9438 17.7087 25.1813 17.9037 25.4995 17.9909C25.6601 18.0343 25.8157 18.0546 25.9671 18.0537C27.1911 18.0537 28.0907 16.7536 28.3366 16.3573C29.1725 16.2928 34.1967 16.0118 36.5503 18.2951C36.4487 18.7641 36.1919 20.313 37.1036 20.8688C37.3048 20.992 37.5448 21.0387 37.7911 21.0387C38.1202 21.0387 38.4602 20.9556 38.7387 20.8634C39.09 20.7473 39.4731 20.5667 39.8277 20.3535C39.9787 21.354 39.9804 22.3908 39.8499 23.3876H39.8495Z" fill="black"/>
<path d="M29.9717 11.7582C29.9885 11.7582 30.0052 11.7565 30.0219 11.7541C30.052 11.7495 33.0216 11.2867 34.5192 11.7437C34.6321 11.7785 34.7546 11.7483 34.8378 11.666C34.9215 11.5842 34.9516 11.4636 34.9173 11.352C34.9039 11.3086 34.5756 10.2808 33.4294 9.76921C33.2688 9.69689 33.0814 9.76756 33.0091 9.92542C32.9367 10.0841 33.0074 10.2701 33.1672 10.3416C33.559 10.516 33.8271 10.7672 34.004 10.9941C32.3291 10.7585 30.0324 11.116 29.9215 11.1329C29.7484 11.1606 29.6296 11.3214 29.6577 11.4925C29.6832 11.647 29.8182 11.7574 29.9717 11.7574V11.7582Z" fill="black"/>
<path d="M16.8977 28.2917C18.7048 28.2917 20.1697 27.8815 20.1697 27.3755C20.1697 26.8695 18.7048 26.4593 16.8977 26.4593C15.0907 26.4593 13.6258 26.8695 13.6258 27.3755C13.6258 27.8815 15.0907 28.2917 16.8977 28.2917Z" fill="#F2F2F2"/>
<path d="M50.7995 15.9015C50.7995 15.9015 54.9325 16.1589 55.3896 17.4528C55.8467 18.7467 53.6608 20.7886 52.4288 21.3779C52.4288 21.3779 52.568 18.8496 50.7995 15.9019V15.9015Z" fill="black"/>
</svg>
