<svg width="82" height="79" viewBox="0 0 82 79" fill="none" xmlns="http://www.w3.org/2000/svg">
<path d="M61.4056 59.0669C72.4158 48.193 72.4158 30.5629 61.4056 19.689C50.3953 8.81507 32.5442 8.81507 21.534 19.689C10.5237 30.5629 10.5237 48.193 21.534 59.0669C32.5442 69.9408 50.3953 69.9408 61.4056 59.0669Z" fill="#F99C1C"/>
<path d="M59.8074 59.0668C70.8177 48.1929 70.8177 30.5628 59.8074 19.6889C48.7972 8.81501 30.9461 8.81501 19.9358 19.6889C8.92557 30.5628 8.92557 48.1929 19.9358 59.0668C30.9461 69.9407 48.7972 69.9407 59.8074 59.0668Z" fill="#F8D631"/>
<path d="M37.8793 67.1525L67.993 41.3635C68.0401 40.7073 68.0653 40.0457 68.0653 39.3779C68.0653 39.236 68.0613 39.0948 68.0598 38.9544L35.4706 66.8841C36.2631 67.0067 37.0665 67.0966 37.8793 67.1525Z" fill="#FBF393"/>
<path d="M14.515 51.5623C15.0529 52.652 15.6616 53.7022 16.3338 54.7074L57.1975 17.4112C56.2009 16.6434 55.1501 15.9406 54.0529 15.3093L14.515 51.5623Z" fill="#FBF393"/>
<path d="M57.7358 55.6361C66.8277 46.6569 66.8277 32.0986 57.7358 23.1194C48.644 14.1401 33.9032 14.1401 24.8114 23.1194C15.7196 32.0986 15.7196 46.6569 24.8114 55.6361C33.9032 64.6154 48.644 64.6154 57.7358 55.6361Z" fill="#FBF393"/>
<path d="M56.3521 55.6358C65.4436 46.6568 65.4436 32.0991 56.3521 23.1201C47.2606 14.1412 32.5203 14.1412 23.4288 23.1201C14.3372 32.0991 14.3372 46.6568 23.4288 55.6358C32.5203 64.6147 47.2606 64.6147 56.3521 55.6358Z" fill="#F99C1C"/>
<path d="M17.9925 39.3779C17.9925 26.9081 28.0443 16.7574 40.5825 16.3959C40.3524 16.3889 40.1223 16.3851 39.8914 16.3851C27.0335 16.3851 16.6103 26.6792 16.6103 39.3779C16.6103 52.0765 27.0335 62.3699 39.8906 62.3699C40.1215 62.3699 40.3524 62.366 40.5817 62.3591C28.0435 61.9976 17.9917 51.8469 17.9917 39.3771L17.9925 39.3779Z" fill="#D2631A"/>
<path d="M36.3258 56.1517C36.3251 54.9021 36.3243 53.6526 36.3227 52.403C36.3227 52.0439 36.3211 52.0424 35.9654 52.0424C33.6878 52.0424 31.4103 52.0424 29.1336 52.0424C28.744 52.0424 28.7385 52.0377 28.7385 51.6561C28.7377 50.7184 28.737 49.7814 28.7385 48.8445C28.7393 48.5001 28.7613 48.4815 29.1076 48.4799C29.6048 48.4776 30.1003 48.4807 30.5967 48.4372C31.3027 48.3752 31.6569 48.0339 31.7205 47.3351C31.759 46.9162 31.7621 46.4974 31.7621 46.0786C31.7621 41.5892 31.7629 37.0998 31.7606 32.6105C31.7606 32.218 31.7409 31.8256 31.7158 31.4339C31.6773 30.8172 31.2532 30.4124 30.6226 30.3488C30.0995 30.296 29.5757 30.2929 29.0527 30.3045C28.8163 30.31 28.733 30.2254 28.7346 29.9951C28.7425 29.0131 28.7432 28.0312 28.7346 27.05C28.7322 26.7971 28.8359 26.7343 29.0754 26.7351C31.3616 26.7421 33.6486 26.739 35.9347 26.739C36.1934 26.739 36.323 26.611 36.3235 26.355C36.3235 25.2218 36.3306 24.0879 36.3188 22.9547C36.3164 22.6855 36.4036 22.6002 36.6777 22.6049C37.6625 22.6188 38.6481 22.6204 39.6322 22.6049C39.9157 22.6002 39.9825 22.7003 39.9801 22.9616C39.9683 24.1127 39.9825 25.2645 39.9699 26.4155C39.9668 26.6785 40.0547 26.7537 40.3115 26.7452C40.8259 26.7289 41.3419 26.7405 41.8563 26.7397C42.0987 26.7397 42.2202 26.6234 42.2207 26.3907C42.2207 25.2754 42.2207 24.1592 42.2207 23.0439C42.2207 22.7558 42.3707 22.6118 42.6707 22.6118C43.6014 22.6118 44.5328 22.6118 45.4635 22.6118C45.8726 22.6118 45.8734 22.6118 45.8734 23.0066C45.8734 24.1933 45.8813 25.3808 45.8687 26.5676C45.8656 26.8336 45.9653 26.9251 46.219 26.9546C47.8926 27.1446 49.4075 27.7101 50.6814 28.8293C51.2932 29.366 51.7463 30.0207 52.0557 30.7614C52.7531 32.4329 52.6573 34.0757 51.7714 35.6556C51.1298 36.7997 50.1591 37.6079 48.9819 38.1881C48.6387 38.3571 48.2782 38.489 47.9318 38.6899C48.3638 38.828 48.7989 38.9598 49.2292 39.1049C50.1835 39.4275 51.0458 39.9107 51.7471 40.6297C52.6424 41.5473 53.1984 42.6386 53.3689 43.9138C53.7026 46.4144 52.7783 48.4109 50.8369 49.9683C49.5041 51.0372 47.9208 51.5514 46.2355 51.7678C45.9645 51.8027 45.8656 51.8873 45.8679 52.1642C45.8789 53.4936 45.8711 54.8238 45.8695 56.1532H42.2364C42.2309 56.0377 42.2215 55.9221 42.2215 55.8065C42.2207 54.6648 42.2121 53.5223 42.227 52.3806C42.2309 52.1021 42.1391 52.0276 41.8705 52.0385C41.4102 52.0579 40.9492 52.0424 40.4882 52.0447C39.9196 52.0478 39.9778 51.985 39.9754 52.5411C39.9691 53.7449 39.9644 54.9487 39.9589 56.1532H36.3258V56.1517ZM38.1557 43.9983H38.1652C38.1652 44.7034 38.1565 45.4084 38.1683 46.1127C38.1754 46.5222 38.1377 46.9349 38.2256 47.3397C38.3097 47.7275 38.4817 47.8633 38.8751 47.8959C39.8309 47.9773 40.789 47.9556 41.7464 47.9346C42.5388 47.9168 43.3312 47.8672 44.1064 47.657C46.585 46.986 47.4049 44.1465 46.2048 42.2997C45.6449 41.438 44.7449 41.0866 43.7671 40.9082C43.1891 40.8027 42.6008 40.795 42.015 40.767C40.7953 40.7089 39.5764 40.7569 38.3576 40.7391C38.2123 40.7368 38.1526 40.7903 38.1534 40.9462C38.1597 41.9631 38.1565 42.9799 38.1565 43.9975L38.1557 43.9983ZM38.1667 33.9229C38.1667 34.8241 38.1761 35.7247 38.1612 36.6259C38.1565 36.9013 38.2523 36.9796 38.5217 36.9726C39.1626 36.9564 39.8042 36.9595 40.4458 36.9695C41.4864 36.9866 42.5207 36.9315 43.5464 36.7531C45.0457 36.4925 45.9952 35.6316 46.2064 34.2843C46.4098 32.9836 45.8467 31.7627 44.5548 31.2741C43.7506 30.97 42.8977 30.9219 42.0519 30.8995C40.8691 30.8684 39.6856 30.8948 38.5029 30.8816C38.2398 30.8785 38.1604 30.9669 38.1636 31.2206C38.1754 32.1211 38.1683 33.0224 38.1683 33.9236L38.1667 33.9229Z" fill="#D2631A"/>
<path d="M35.0544 56.1517C35.0544 54.9021 35.0528 53.6526 35.0512 52.403C35.0512 52.0439 35.0496 52.0424 34.6939 52.0424C32.4163 52.0424 30.1396 52.0424 27.8621 52.0424C27.4725 52.0424 27.467 52.0377 27.467 51.6561C27.4662 50.7184 27.4655 49.7814 27.467 48.8445C27.467 48.5001 27.489 48.4815 27.8361 48.4799C28.3325 48.4776 28.8288 48.4807 29.3252 48.4372C30.0312 48.3752 30.3854 48.0339 30.4498 47.3351C30.4875 46.9162 30.4914 46.4974 30.4914 46.0786C30.4914 41.5892 30.4922 37.0998 30.4891 32.6105C30.4891 32.218 30.4694 31.8256 30.4443 31.4339C30.4058 30.8172 29.9817 30.4124 29.3511 30.3488C28.8281 30.296 28.3042 30.2929 27.7812 30.3045C27.5448 30.31 27.4615 30.2254 27.4631 29.9951C27.4702 29.0131 27.4717 28.0312 27.4623 27.05C27.46 26.7971 27.5644 26.7343 27.8032 26.7351C30.0893 26.7421 32.3763 26.739 34.6625 26.739C34.9211 26.739 35.0507 26.611 35.0512 26.355C35.0512 25.2218 35.0583 24.0879 35.0465 22.9547C35.0441 22.6855 35.1313 22.6002 35.4054 22.6049C36.3902 22.6188 37.3759 22.6204 38.3599 22.6049C38.6434 22.6002 38.7102 22.7003 38.7078 22.9616C38.6961 24.1127 38.7102 25.2645 38.6976 26.4155C38.6945 26.6785 38.7824 26.7537 39.0393 26.7452C39.5537 26.7289 40.0696 26.7405 40.5848 26.7397C40.9485 26.7397 40.9492 26.739 40.9492 26.3907C40.9492 25.2754 40.9492 24.1592 40.9492 23.0439C40.9492 22.7558 41.0992 22.6118 41.3993 22.6118C42.3299 22.6118 43.2613 22.6118 44.192 22.6118C44.6011 22.6118 44.6019 22.6118 44.6019 23.0066C44.6027 24.1933 44.6098 25.3808 44.5972 26.5676C44.5941 26.8336 44.6938 26.9251 44.9475 26.9546C46.6211 27.1446 48.1368 27.7101 49.4107 28.8293C50.0217 29.366 50.4756 30.0207 50.785 30.7614C51.4824 32.4329 51.3866 34.0757 50.5007 35.6556C49.8591 36.7997 48.8884 37.6079 47.7119 38.1881C47.3687 38.3571 47.0083 38.489 46.6619 38.6899C47.0947 38.828 47.5297 38.9598 47.9593 39.1049C48.9135 39.4275 49.7759 39.9107 50.4772 40.6297C51.3717 41.5473 51.9277 42.6386 52.0982 43.9138C52.4319 46.4144 51.5076 48.4109 49.5662 49.9683C48.2326 51.0372 46.6501 51.5514 44.9648 51.7678C44.693 51.8027 44.5949 51.8873 44.5972 52.1642C44.6082 53.4936 44.6004 54.8238 44.5988 56.1532H40.9657C40.9602 56.0377 40.9508 55.9221 40.95 55.8065C40.9492 54.6648 40.9406 53.5223 40.9555 52.3806C40.9595 52.1021 40.8676 52.0276 40.599 52.0385C40.1388 52.0579 39.6777 52.0424 39.2167 52.0447C38.6481 52.0478 38.7063 51.985 38.7039 52.5411C38.6976 53.7449 38.6929 54.9487 38.6882 56.1532H35.0551L35.0544 56.1517ZM36.8842 43.9983H36.8937C36.8937 44.7034 36.885 45.4084 36.8968 46.1127C36.9039 46.5222 36.8662 46.9349 36.9541 47.3397C37.0382 47.7275 37.2094 47.8633 37.6036 47.8959C38.5594 47.9773 39.5175 47.9556 40.4741 47.9346C41.2665 47.9168 42.0589 47.8672 42.8341 47.657C45.3135 46.986 46.1326 44.1465 44.9326 42.2997C44.3726 41.438 43.4726 41.0866 42.4948 40.9082C41.916 40.8027 41.3286 40.795 40.7427 40.767C39.523 40.7089 38.3042 40.7569 37.0845 40.7391C36.9392 40.7368 36.8787 40.7903 36.8803 40.9462C36.8866 41.9631 36.8835 42.9799 36.8835 43.9975L36.8842 43.9983ZM36.8952 33.9229C36.8952 34.8241 36.9047 35.7247 36.8897 36.6259C36.885 36.9013 36.9808 36.9796 37.2502 36.9726C37.8911 36.9564 38.5327 36.9595 39.1743 36.9695C40.2149 36.9866 41.2492 36.9315 42.2749 36.7531C43.7742 36.4925 44.7237 35.6316 44.9349 34.2843C45.1383 32.9836 44.5752 31.7627 43.2833 31.2741C42.4791 30.97 41.6262 30.9219 40.7804 30.8995C39.5984 30.8684 38.4141 30.8948 37.2314 30.8816C36.9683 30.8785 36.8889 30.9669 36.8921 31.2206C36.9039 32.1211 36.8968 33.0224 36.8968 33.9236L36.8952 33.9229Z" fill="#F8D631"/>
<path d="M37.2298 30.8816C38.4133 30.8948 39.5969 30.8692 40.7788 30.8995C41.2846 30.9127 41.7927 30.9351 42.2907 31.0166L46.4318 27.2369C45.9528 27.1043 45.4572 27.0105 44.9467 26.9531C44.6931 26.9244 44.5933 26.8321 44.5965 26.566C44.6059 25.702 44.6051 24.8379 44.6027 23.9731L37.0421 30.9057C37.0908 30.8886 37.1505 30.8801 37.229 30.8809L37.2298 30.8816Z" fill="#FBF393"/>
<path d="M30.4907 41.7862L36.896 35.9403C36.8999 35.2678 36.8944 34.5961 36.8944 33.9237C36.8944 33.0224 36.9015 32.1219 36.8897 31.2206C36.8882 31.1353 36.8984 31.0693 36.9196 31.0189L30.4899 36.9145C30.4899 38.5387 30.4907 40.1621 30.4899 41.7862H30.4907Z" fill="#FBF393"/>
<path d="M42.8341 47.6577C42.0589 47.8679 41.2665 47.9176 40.4741 47.9354C40.1741 47.9424 39.8741 47.9486 39.5741 47.9517C40.1262 47.9587 40.6775 47.9478 41.2288 47.9354C42.0212 47.9176 42.8137 47.8679 43.5888 47.6577C46.0682 46.9868 46.8873 44.1472 45.6873 42.3005C45.1273 41.4387 44.2273 41.0874 43.2495 40.909C42.6707 40.8035 42.0833 40.7957 41.4966 40.7678C40.8456 40.7368 40.1937 40.736 39.5427 40.7391C39.9424 40.7414 40.3422 40.7484 40.7427 40.7678C41.3293 40.7957 41.9168 40.8035 42.4948 40.909C43.4726 41.0874 44.3726 41.4387 44.9326 42.3005C46.1326 44.1472 45.3127 46.9868 42.8341 47.6577Z" fill="#FBF393"/>
<path d="M41.3388 26.7382C41.7024 26.7382 41.7032 26.7374 41.7032 26.3892C41.7032 25.2738 41.7032 24.1577 41.7032 23.0423C41.7032 22.6157 41.704 22.6103 42.1367 22.6103C41.8909 22.6103 41.6443 22.6103 41.3977 22.6103C41.0977 22.6103 40.9477 22.7543 40.9477 23.0423C40.9477 24.1577 40.9477 25.2738 40.9477 26.3892C40.9477 26.673 40.9477 26.7258 40.7498 26.7359C40.9461 26.7366 41.1424 26.7382 41.338 26.7382H41.3388Z" fill="#FBF393"/>
<path d="M39.3856 30.8847C39.8505 30.8847 40.3147 30.8878 40.7788 30.8995C41.6254 30.9212 42.4783 30.97 43.2818 31.2741C44.5737 31.7627 45.1368 32.9836 44.9334 34.2843C44.7221 35.6316 43.7734 36.4925 42.2734 36.7532C41.4778 36.8912 40.6767 36.9548 39.871 36.9688C39.8898 36.9688 39.9087 36.9688 39.9275 36.9688C40.9681 36.9858 42.0024 36.9308 43.0281 36.7524C44.5273 36.4918 45.4768 35.6308 45.6881 34.2835C45.8915 32.9828 45.3284 31.762 44.0365 31.2733C43.2323 30.9693 42.3794 30.9212 41.5336 30.8987C40.8181 30.8801 40.1011 30.8824 39.3848 30.884L39.3856 30.8847Z" fill="#FBF393"/>
<path d="M35.4479 52.0432C33.1703 52.0432 30.8936 52.0432 28.616 52.0432C28.2265 52.0432 28.221 52.0385 28.221 51.6569C28.2202 50.7192 28.2194 49.7822 28.221 48.8452C28.221 48.5009 28.243 48.4823 28.5901 48.4807C29.0865 48.4784 29.5828 48.4815 30.0792 48.438C30.7852 48.376 31.1394 48.0347 31.2038 47.3359C31.2423 46.917 31.2454 46.4982 31.2454 46.0794C31.2454 41.59 31.2462 37.1006 31.2438 32.6113C31.2438 32.2188 31.2242 31.8264 31.1991 31.4347C31.1606 30.818 30.7365 30.4132 30.1059 30.3496C29.6024 30.2991 29.0982 30.2945 28.5948 30.3046C28.8469 30.3108 29.099 30.324 29.3511 30.3496C29.9818 30.4132 30.4059 30.8173 30.4443 31.4347C30.4687 31.8264 30.4883 32.2188 30.4891 32.6113C30.4923 37.1006 30.4915 41.59 30.4915 46.0794C30.4915 46.499 30.4883 46.9178 30.4498 47.3359C30.3854 48.0347 30.0313 48.3768 29.3252 48.438C28.8289 48.4815 28.3325 48.4784 27.8362 48.4807C27.4891 48.4823 27.4678 48.5009 27.4671 48.8452C27.4647 49.7822 27.4655 50.7192 27.4671 51.6569C27.4671 52.0385 27.4726 52.0432 27.8621 52.0432C30.1396 52.0432 32.4172 52.0432 34.6939 52.0432C35.0497 52.0432 35.0512 52.0447 35.0512 52.4038C35.0528 53.6534 35.0536 54.9029 35.0544 56.1525H35.8091C35.8091 54.9029 35.8075 53.6534 35.806 52.4038C35.806 52.0447 35.8044 52.0432 35.4486 52.0432H35.4479Z" fill="#FBF393"/>
<path d="M41.7094 52.379C41.7134 52.1006 41.6215 52.0261 41.3529 52.037C41.1573 52.0455 40.961 52.0463 40.7654 52.0463C40.906 52.075 40.9579 52.1688 40.9547 52.379C40.9398 53.5207 40.9476 54.6632 40.9492 55.805C40.9492 55.9205 40.9594 56.0361 40.9649 56.1517H41.7196C41.7142 56.0361 41.7047 55.9205 41.7039 55.805C41.7032 54.6632 41.6945 53.5207 41.7094 52.379Z" fill="#FBF393"/>
<path d="M35.4172 26.7382C35.6758 26.7382 35.8054 26.6102 35.8059 26.3542C35.8059 25.221 35.813 24.0871 35.8012 22.9539C35.7989 22.7297 35.8609 22.6343 36.0392 22.611C35.8279 22.6095 35.6167 22.6072 35.4054 22.6041C35.1313 22.6002 35.0441 22.6855 35.0465 22.9539C35.0583 24.0871 35.052 25.221 35.0512 26.3542C35.0512 26.6097 34.9216 26.7377 34.6625 26.7382C33.7342 26.7382 34.2368 26.7382 35.4172 26.7382Z" fill="#FBF393"/>
<path d="M27.7812 30.3045C28.0042 30.2999 28.228 30.2983 28.4511 30.3014C28.2799 30.2844 28.2163 30.1944 28.2178 29.9943C28.2249 29.0123 28.2265 28.0304 28.217 27.0492C28.2147 26.8064 28.3121 26.7397 28.5312 26.7351C28.2885 26.7351 28.0458 26.7351 27.8032 26.7343C27.5644 26.7343 27.46 26.7964 27.4623 27.0492C27.4717 28.0304 27.4702 29.0123 27.4631 29.9943C27.4615 30.2247 27.5448 30.3092 27.7812 30.3038V30.3045Z" fill="#FBF393"/>
</svg>
