<svg width="437" height="436" viewBox="0 0 437 436" fill="none" xmlns="http://www.w3.org/2000/svg">
<g opacity="0.2" filter="url(#filter0_f_26_9640)">
<path d="M218.5 14L230.854 120.708L269.357 20.4247L254.786 126.853L317.019 39.2953L276.437 138.756L358.49 69.4259L294.449 155.67L391.165 108.923L307.688 176.531L412.991 155.306L315.323 200.03L422.596 205.659L316.875 224.689L419.378 256.819L312.245 248.96L403.537 305.572L301.725 271.316L376.07 348.853L285.975 290.354L338.702 383.944L265.986 304.877L293.781 408.639L243.013 313.972L244.131 421.387L218.5 317.069L192.869 421.387L193.987 313.972L143.219 408.639L171.014 304.877L98.2979 383.944L151.025 290.354L60.93 348.853L135.275 271.316L33.4629 305.572L124.755 248.96L17.6223 256.819L120.126 224.689L14.4035 205.659L121.677 200.03L24.0089 155.306L129.312 176.531L45.8349 108.923L142.551 155.67L78.5101 69.4259L160.563 138.756L119.981 39.2953L182.214 126.853L167.643 20.4247L206.146 120.708L218.5 14Z" fill="white"/>
</g>
<defs>
<filter id="filter0_f_26_9640" x="0.403564" y="0" width="436.193" height="435.387" filterUnits="userSpaceOnUse" color-interpolation-filters="sRGB">
<feFlood flood-opacity="0" result="BackgroundImageFix"/>
<feBlend mode="normal" in="SourceGraphic" in2="BackgroundImageFix" result="shape"/>
<feGaussianBlur stdDeviation="7" result="effect1_foregroundBlur_26_9640"/>
</filter>
</defs>
</svg>
