<svg width="50" height="48" viewBox="0 0 50 48" fill="none" xmlns="http://www.w3.org/2000/svg">
<g clip-path="url(#clip0_3_2967)">
<path d="M42.8793 40.9706C52.3733 31.598 52.3733 16.402 42.8793 7.02945C33.3853 -2.34313 17.9924 -2.34313 8.49842 7.02945C-0.995598 16.402 -0.995598 31.598 8.49842 40.9706C17.9924 50.3432 33.3853 50.3432 42.8793 40.9706Z" fill="#F99C1C"/>
<path d="M41.5012 40.9706C50.9952 31.598 50.9952 16.402 41.5012 7.02943C32.0072 -2.34315 16.6144 -2.34316 7.12036 7.02943C-2.37365 16.402 -2.37365 31.598 7.12036 40.9706C16.6144 50.3431 32.0072 50.3431 41.5012 40.9706Z" fill="#F8D631"/>
<path d="M22.5929 47.9398L48.5596 25.7115C48.6002 25.1459 48.6219 24.5756 48.6219 24C48.6219 23.8777 48.6185 23.756 48.6171 23.635L20.5159 47.7085C21.1992 47.8141 21.8919 47.8917 22.5929 47.9398Z" fill="#FBF393"/>
<path d="M2.44604 34.5021C2.90993 35.4414 3.43476 36.3466 4.01445 37.2131L39.2507 5.06621C38.3914 4.40435 37.4853 3.79865 36.5392 3.25446L2.44604 34.5021Z" fill="#FBF393"/>
<path d="M39.715 38.0135C47.5548 30.274 47.5548 17.7258 39.715 9.98624C31.8752 2.24672 19.1644 2.24672 11.3246 9.98624C3.4848 17.7258 3.4848 30.274 11.3246 38.0135C19.1644 45.753 31.8752 45.753 39.715 38.0135Z" fill="#FBF393"/>
<path d="M38.5218 38.0132C46.3613 30.2739 46.3613 17.7261 38.5218 9.98685C30.6822 2.2476 17.9719 2.2476 10.1323 9.98685C2.29281 17.7261 2.29281 30.2739 10.1323 38.0132C17.9719 45.7524 30.6822 45.7524 38.5218 38.0132Z" fill="#F99C1C"/>
<path d="M5.44469 24C5.44469 13.2518 14.1122 4.50263 24.9238 4.19109C24.7254 4.18507 24.5269 4.18173 24.3278 4.18173C13.2407 4.18173 4.25281 13.0546 4.25281 24C4.25281 34.9454 13.2407 43.8176 24.3272 43.8176C24.5263 43.8176 24.7254 43.8143 24.9231 43.8082C14.1115 43.4967 5.44401 34.7475 5.44401 23.9993L5.44469 24Z" fill="#D2631A"/>
<path d="M21.2534 38.4579C21.2527 37.3809 21.2521 36.3039 21.2507 35.2268C21.2507 34.9173 21.2493 34.916 20.9426 34.916C18.9787 34.916 17.0148 34.916 15.0516 34.916C14.7157 34.916 14.7109 34.9119 14.7109 34.583C14.7103 33.7748 14.7096 32.9672 14.7109 32.1596C14.7116 31.8627 14.7306 31.8467 15.0292 31.8453C15.4579 31.8433 15.8852 31.846 16.3132 31.8086C16.922 31.7551 17.2274 31.4609 17.2823 30.8586C17.3155 30.4976 17.3182 30.1365 17.3182 29.7755C17.3182 25.906 17.3189 22.0365 17.3168 18.167C17.3168 17.8287 17.2999 17.4904 17.2782 17.1528C17.245 16.6213 16.8793 16.2723 16.3356 16.2175C15.8845 16.172 15.4328 16.1694 14.9818 16.1794C14.778 16.1841 14.7062 16.1112 14.7076 15.9126C14.7143 15.0663 14.715 14.2199 14.7076 13.3742C14.7055 13.1562 14.7949 13.1021 15.0015 13.1028C16.9728 13.1088 18.9448 13.1061 20.9162 13.1061C21.1392 13.1061 21.2509 12.9958 21.2514 12.7752C21.2514 11.7984 21.2575 10.821 21.2473 9.84428C21.2453 9.6123 21.3205 9.53876 21.5568 9.54277C22.406 9.55481 23.2559 9.55614 24.1044 9.54277C24.3489 9.53876 24.4065 9.625 24.4044 9.8503C24.3943 10.8424 24.4065 11.8352 24.3956 12.8273C24.3929 13.054 24.4688 13.1188 24.6902 13.1115C25.1338 13.0974 25.5787 13.1074 26.0223 13.1068C26.2313 13.1068 26.336 13.0065 26.3365 12.8059C26.3365 11.8446 26.3365 10.8825 26.3365 9.92117C26.3365 9.67291 26.4658 9.54879 26.7245 9.54879C27.527 9.54879 28.3302 9.54879 29.1327 9.54879C29.4855 9.54879 29.4862 9.54879 29.4862 9.88908C29.4862 10.9119 29.4929 11.9355 29.4821 12.9584C29.4794 13.1877 29.5654 13.2666 29.7841 13.292C31.2273 13.4558 32.5336 13.9431 33.632 14.9078C34.1596 15.3705 34.5503 15.9347 34.8171 16.5732C35.4185 18.0139 35.3359 19.4298 34.572 20.7917C34.0187 21.7778 33.1817 22.4744 32.1665 22.9745C31.8706 23.1202 31.5598 23.2338 31.2611 23.407C31.6336 23.526 32.0088 23.6397 32.3799 23.7647C33.2027 24.0428 33.9462 24.4593 34.551 25.079C35.323 25.8699 35.8025 26.8106 35.9494 27.9096C36.2372 30.065 35.4401 31.7858 33.7661 33.1283C32.6169 34.0495 31.2516 34.4928 29.7984 34.6793C29.5647 34.7094 29.4794 34.7823 29.4814 35.0209C29.4909 36.1668 29.4841 37.3134 29.4828 38.4592H26.35C26.3453 38.3596 26.3372 38.26 26.3372 38.1604C26.3365 37.1763 26.3291 36.1915 26.3419 35.2074C26.3453 34.9674 26.2661 34.9033 26.0345 34.9126C25.6376 34.9293 25.2401 34.916 24.8426 34.918C24.3523 34.9206 24.4024 34.8665 24.4004 35.3458C24.395 36.3834 24.3909 37.421 24.3862 38.4592H21.2534V38.4579ZM22.8313 27.9825H22.8394C22.8394 28.5902 22.832 29.1979 22.8421 29.805C22.8482 30.1579 22.8157 30.5136 22.8916 30.8626C22.964 31.1969 23.1123 31.3139 23.4516 31.3419C24.2758 31.4121 25.102 31.3934 25.9275 31.3754C26.6108 31.36 27.2941 31.3172 27.9625 31.136C30.0997 30.5577 30.8067 28.1102 29.772 26.5184C29.2891 25.7756 28.513 25.4728 27.6699 25.319C27.1715 25.2281 26.6643 25.2214 26.1591 25.1974C25.1074 25.1472 24.0564 25.1887 23.0053 25.1733C22.88 25.1713 22.8286 25.2174 22.8293 25.3518C22.8347 26.2283 22.832 27.1047 22.832 27.9818L22.8313 27.9825ZM22.8408 19.2981C22.8408 20.075 22.8489 20.8512 22.836 21.628C22.832 21.8653 22.9146 21.9329 23.1469 21.9269C23.6995 21.9128 24.2527 21.9155 24.806 21.9242C25.7033 21.9389 26.5952 21.8914 27.4796 21.7377C28.7724 21.513 29.5911 20.7709 29.7733 19.6097C29.9487 18.4885 29.4632 17.4363 28.3491 17.0151C27.6557 16.753 26.9202 16.7116 26.1909 16.6922C25.171 16.6654 24.1505 16.6882 23.1306 16.6768C22.9038 16.6741 22.8354 16.7503 22.8381 16.9689C22.8482 17.7451 22.8421 18.522 22.8421 19.2988L22.8408 19.2981Z" fill="#D2631A"/>
<path d="M20.1569 38.4579C20.1569 37.3809 20.1556 36.3039 20.1542 35.2268C20.1542 34.9173 20.1529 34.916 19.8461 34.916C17.8822 34.916 15.919 34.916 13.9551 34.916C13.6192 34.916 13.6144 34.9119 13.6144 34.583C13.6138 33.7748 13.6131 32.9672 13.6144 32.1596C13.6144 31.8627 13.6334 31.8467 13.9327 31.8453C14.3607 31.8433 14.7887 31.846 15.2167 31.8086C15.8255 31.7551 16.1309 31.4609 16.1865 30.8586C16.219 30.4976 16.2224 30.1365 16.2224 29.7755C16.2224 25.906 16.223 22.0365 16.2203 18.167C16.2203 17.8287 16.2034 17.4904 16.1817 17.1528C16.1485 16.6213 15.7829 16.2723 15.2391 16.2175C14.788 16.172 14.3363 16.1694 13.8853 16.1794C13.6815 16.1841 13.6097 16.1112 13.6111 15.9126C13.6172 15.0663 13.6185 14.2199 13.6104 13.3742C13.6084 13.1562 13.6984 13.1021 13.9043 13.1028C15.8756 13.1088 17.8477 13.1061 19.819 13.1061C20.042 13.1061 20.1538 12.9958 20.1542 12.7752C20.1542 11.7984 20.1603 10.821 20.1501 9.84428C20.1481 9.6123 20.2233 9.53876 20.4596 9.54277C21.3088 9.55481 22.1587 9.55614 23.0073 9.54277C23.2517 9.53876 23.3093 9.625 23.3073 9.8503C23.2971 10.8424 23.3093 11.8352 23.2985 12.8273C23.2958 13.054 23.3716 13.1188 23.593 13.1115C24.0366 13.0974 24.4815 13.1074 24.9258 13.1068C25.2393 13.1068 25.24 13.1061 25.24 12.8059C25.24 11.8446 25.24 10.8825 25.24 9.92117C25.24 9.67291 25.3694 9.54879 25.628 9.54879C26.4305 9.54879 27.2337 9.54879 28.0362 9.54879C28.389 9.54879 28.3897 9.54879 28.3897 9.88908C28.3904 10.9119 28.3965 11.9355 28.3856 12.9584C28.3829 13.1877 28.4689 13.2666 28.6877 13.292C30.1308 13.4558 31.4378 13.9431 32.5362 14.9078C33.0631 15.3705 33.4545 15.9347 33.7213 16.5732C34.3227 18.0139 34.24 19.4298 33.4762 20.7917C32.9229 21.7778 32.0859 22.4744 31.0714 22.9745C30.7755 23.1202 30.4646 23.2338 30.166 23.407C30.5391 23.526 30.9143 23.6397 31.2847 23.7647C32.1075 24.0428 32.8511 24.4593 33.4558 25.079C34.2272 25.8699 34.7066 26.8106 34.8536 27.9096C35.1414 30.065 34.3443 31.7858 32.6703 33.1283C31.5204 34.0495 30.1558 34.4928 28.7026 34.6793C28.4682 34.7094 28.3836 34.7823 28.3856 35.0209C28.3951 36.1668 28.3883 37.3134 28.387 38.4592H25.2542C25.2495 38.3596 25.2414 38.26 25.2407 38.1604C25.24 37.1763 25.2326 36.1915 25.2454 35.2074C25.2488 34.9674 25.1696 34.9033 24.938 34.9126C24.5411 34.9293 24.1436 34.916 23.7461 34.918C23.2558 34.9206 23.3059 34.8665 23.3039 35.3458C23.2985 36.3834 23.2944 37.421 23.2903 38.4592H20.1576L20.1569 38.4579ZM21.7348 27.9825H21.7429C21.7429 28.5902 21.7355 29.1979 21.7456 29.805C21.7517 30.1579 21.7192 30.5136 21.7951 30.8626C21.8675 31.1969 22.0152 31.3139 22.3551 31.3419C23.1793 31.4121 24.0055 31.3934 24.8303 31.3754C25.5136 31.36 26.1969 31.3172 26.8653 31.136C29.0032 30.5577 29.7096 28.1102 28.6748 26.5184C28.1919 25.7756 27.4159 25.4728 26.5727 25.319C26.0736 25.2281 25.5671 25.2214 25.0619 25.1974C24.0102 25.1472 22.9592 25.1887 21.9075 25.1733C21.7822 25.1713 21.7301 25.2174 21.7314 25.3518C21.7368 26.2283 21.7341 27.1047 21.7341 27.9818L21.7348 27.9825ZM21.7443 19.2981C21.7443 20.075 21.7524 20.8512 21.7395 21.628C21.7355 21.8653 21.8181 21.9329 22.0504 21.9269C22.603 21.9128 23.1562 21.9155 23.7095 21.9242C24.6068 21.9389 25.4987 21.8914 26.3831 21.7377C27.6759 21.513 28.4946 20.7709 28.6768 19.6097C28.8522 18.4885 28.3667 17.4363 27.2527 17.0151C26.5592 16.753 25.8238 16.7116 25.0944 16.6922C24.0752 16.6654 23.054 16.6882 22.0341 16.6768C21.8073 16.6741 21.7389 16.7503 21.7416 16.9689C21.7517 17.7451 21.7456 18.522 21.7456 19.2988L21.7443 19.2981Z" fill="#F8D631"/>
<path d="M22.0327 16.6768C23.0532 16.6881 24.0738 16.6661 25.093 16.6922C25.5291 16.7035 25.9673 16.7229 26.3966 16.7931L29.9675 13.5353C29.5544 13.421 29.1271 13.3401 28.6869 13.2906C28.4682 13.2659 28.3822 13.1863 28.3849 12.957C28.393 12.2123 28.3923 11.4675 28.3903 10.7221L21.8708 16.6975C21.9128 16.6828 21.9643 16.6754 22.032 16.6761L22.0327 16.6768Z" fill="#FBF393"/>
<path d="M16.2216 26.0758L21.7449 21.037C21.7483 20.4574 21.7435 19.8784 21.7435 19.2988C21.7435 18.522 21.7496 17.7458 21.7395 16.9689C21.7381 16.8954 21.7469 16.8386 21.7652 16.7951L16.2209 21.8767C16.2209 23.2766 16.2216 24.6759 16.2209 26.0758H16.2216Z" fill="#FBF393"/>
<path d="M26.8654 31.1367C26.197 31.3179 25.5137 31.3607 24.8304 31.376C24.5717 31.382 24.313 31.3874 24.0543 31.3901C24.5304 31.3961 25.0058 31.3867 25.4812 31.376C26.1645 31.3607 26.8478 31.3179 27.5162 31.1367C29.6541 30.5584 30.3604 28.1109 29.3257 26.5191C28.8428 25.7763 28.0667 25.4735 27.2236 25.3197C26.7245 25.2288 26.218 25.2221 25.7121 25.198C25.1507 25.1713 24.5886 25.1706 24.0272 25.1733C24.3719 25.1753 24.7166 25.1813 25.062 25.198C25.5679 25.2221 26.0744 25.2288 26.5728 25.3197C27.416 25.4735 28.192 25.7763 28.6749 26.5191C29.7096 28.1109 29.0026 30.5584 26.8654 31.1367Z" fill="#FBF393"/>
<path d="M25.576 13.1054C25.8896 13.1054 25.8902 13.1048 25.8902 12.8046C25.8902 11.8432 25.8902 10.8812 25.8902 9.91983C25.8902 9.55214 25.8909 9.54745 26.2641 9.54745C26.0521 9.54745 25.8395 9.54745 25.6268 9.54745C25.3681 9.54745 25.2388 9.67158 25.2388 9.91983C25.2388 10.8812 25.2388 11.8432 25.2388 12.8046C25.2388 13.0493 25.2388 13.0947 25.0681 13.1034C25.2374 13.1041 25.4067 13.1054 25.5753 13.1054H25.576Z" fill="#FBF393"/>
<path d="M23.8918 16.6795C24.2927 16.6795 24.6929 16.6821 25.0932 16.6922C25.8232 16.7109 26.5586 16.753 27.2514 17.0151C28.3654 17.4363 28.851 18.4885 28.6756 19.6097C28.4934 20.7709 27.6753 21.513 26.3819 21.7377C25.6959 21.8567 25.0051 21.9115 24.3103 21.9235C24.3266 21.9235 24.3428 21.9235 24.3591 21.9235C25.2564 21.9382 26.1482 21.8908 27.0327 21.737C28.3254 21.5124 29.1442 20.7703 29.3264 19.609C29.5017 18.4879 29.0162 17.4356 27.9022 17.0144C27.2087 16.7523 26.4733 16.7109 25.7439 16.6915C25.127 16.6755 24.5087 16.6775 23.8911 16.6788L23.8918 16.6795Z" fill="#FBF393"/>
<path d="M20.4963 34.9166C18.5324 34.9166 16.5692 34.9166 14.6053 34.9166C14.2694 34.9166 14.2647 34.9126 14.2647 34.5837C14.264 33.7754 14.2633 32.9678 14.2647 32.1602C14.2647 31.8634 14.2836 31.8474 14.583 31.846C15.011 31.844 15.439 31.8467 15.8669 31.8092C16.4758 31.7558 16.7812 31.4616 16.8367 30.8592C16.8699 30.4982 16.8726 30.1372 16.8726 29.7762C16.8726 25.9067 16.8733 22.0372 16.8712 18.1676C16.8712 17.8294 16.8543 17.4911 16.8326 17.1535C16.7995 16.622 16.4338 16.273 15.89 16.2182C15.4559 16.1747 15.0211 16.1707 14.587 16.1794C14.8044 16.1847 15.0218 16.1961 15.2392 16.2182C15.783 16.273 16.1487 16.6213 16.1818 17.1535C16.2028 17.4911 16.2198 17.8294 16.2204 18.1676C16.2232 22.0372 16.2225 25.9067 16.2225 29.7762C16.2225 30.1379 16.2198 30.4989 16.1866 30.8592C16.1311 31.4616 15.8256 31.7564 15.2168 31.8092C14.7888 31.8467 14.3608 31.844 13.9329 31.846C13.6335 31.8474 13.6152 31.8634 13.6146 32.1602C13.6125 32.9678 13.6132 33.7754 13.6146 34.5837C13.6146 34.9126 13.6193 34.9166 13.9552 34.9166C15.9191 34.9166 17.883 34.9166 19.8462 34.9166C20.153 34.9166 20.1543 34.918 20.1543 35.2275C20.1557 36.3045 20.1564 37.3815 20.157 38.4586H20.8078C20.8078 37.3815 20.8065 36.3045 20.8051 35.2275C20.8051 34.918 20.8038 34.9166 20.497 34.9166H20.4963Z" fill="#FBF393"/>
<path d="M25.8955 35.2061C25.8989 34.9661 25.8197 34.9019 25.5881 34.9113C25.4195 34.9186 25.2502 34.9193 25.0815 34.9193C25.2028 34.944 25.2475 35.0249 25.2447 35.2061C25.2319 36.1902 25.2387 37.175 25.24 38.1591C25.24 38.2587 25.2488 38.3583 25.2536 38.4579H25.9043C25.8996 38.3583 25.8915 38.2587 25.8908 38.1591C25.8901 37.175 25.8827 36.1902 25.8955 35.2061Z" fill="#FBF393"/>
<path d="M20.4698 13.1054C20.6928 13.1054 20.8046 12.9951 20.805 12.7745C20.805 11.7978 20.8111 10.8204 20.801 9.84361C20.7989 9.6504 20.8524 9.56817 21.0061 9.54812C20.824 9.54678 20.6418 9.54477 20.4596 9.5421C20.2233 9.53876 20.1481 9.6123 20.1502 9.84361C20.1603 10.8204 20.1549 11.7978 20.1542 12.7745C20.1542 12.9947 20.0425 13.105 19.819 13.1054C19.0186 13.1054 19.452 13.1054 20.4698 13.1054Z" fill="#FBF393"/>
<path d="M13.8853 16.1794C14.0777 16.1754 14.2707 16.174 14.463 16.1767C14.3154 16.162 14.2605 16.0845 14.2619 15.912C14.268 15.0656 14.2693 14.2192 14.2612 13.3735C14.2591 13.1643 14.3431 13.1068 14.5321 13.1028C14.3228 13.1028 14.1135 13.1028 13.9043 13.1021C13.6984 13.1021 13.6084 13.1556 13.6104 13.3735C13.6185 14.2192 13.6172 15.0656 13.6111 15.912C13.6097 16.1105 13.6815 16.1834 13.8853 16.1787V16.1794Z" fill="#FBF393"/>
</g>
<defs>
<clipPath id="clip0_3_2967">
<rect width="50" height="48" fill="white"/>
</clipPath>
</defs>
</svg>
